<svg width="61" height="61" viewBox="0 0 61 61" fill="none" xmlns="http://www.w3.org/2000/svg">
<path d="M0.546892 45.5922C0.625045 44.841 0.703198 44.0898 0.765721 43.323C1.23464 36.359 1.70356 29.3793 2.15684 22.4153C2.235 21.1321 2.32878 19.8488 2.40693 18.5656C2.45382 17.7987 2.76644 17.4858 3.54797 17.4858C4.36076 17.4858 5.18918 17.4701 6.00197 17.4858C6.67408 17.4858 7.09611 17.877 7.08048 18.4404C7.06485 18.9881 6.65845 19.348 6.00197 19.348C5.42364 19.3637 4.8453 19.348 4.20445 19.348C4.11067 20.8191 4.00125 22.2275 3.90747 23.6516C3.61049 28.1117 3.31351 32.5718 3.01653 37.0319C2.81333 40.1149 2.53198 43.1822 2.43819 46.2651C2.3913 47.5171 2.71954 48.7847 2.89148 50.0366C3.32914 53.1509 3.78243 56.2495 4.23571 59.3637C4.31387 59.9271 4.06377 60.287 3.67301 60.6C3.43855 60.6 3.20409 60.6 2.96963 60.6C2.76644 60.287 2.45382 59.9897 2.3913 59.6454C1.92238 56.625 1.51599 53.5891 1.07833 50.5687C0.906396 49.3794 0.703198 48.19 0.5 47.0006C0.546892 46.5311 0.546892 46.0617 0.546892 45.5922Z" fill="#0E141E"/>
<path d="M27.3534 60.5844C26.8063 60.2088 26.6969 59.708 26.8532 59.0664C27.1658 57.7049 27.4159 56.3121 27.6973 54.9506C27.8379 54.2776 28.2912 53.9333 28.8383 54.0742C29.3854 54.215 29.6511 54.7002 29.5104 55.3575C29.2447 56.719 28.9946 58.0805 28.682 59.4263C28.5882 59.8488 28.2756 60.2088 28.0568 60.6C27.8223 60.5844 27.5878 60.5844 27.3534 60.5844Z" fill="#0E141E"/>
<path d="M44.5315 31.5233C44.5315 25.2479 44.5315 19.0507 44.5315 12.7753C44.2814 12.7753 44.0625 12.7753 43.8281 12.7753C36.4817 12.7753 29.1197 12.7753 21.7733 12.7753C21.617 12.7753 21.4607 12.7753 21.3044 12.7753C20.6167 12.7596 20.1946 12.3997 20.2103 11.8207C20.2259 11.2573 20.6323 10.8973 21.3357 10.8973C29.3229 10.8973 37.3258 10.8973 45.313 10.8973C46.0789 10.8973 46.4228 11.2416 46.4228 12.0085C46.4228 18.769 46.4228 25.5139 46.4228 32.2745C46.4228 33.0413 46.0789 33.3856 45.313 33.3856C37.3258 33.3856 29.3229 33.3856 21.3357 33.3856C20.6479 33.3856 20.2259 33.0257 20.2259 32.4623C20.2259 31.8833 20.6479 31.5233 21.3826 31.5233C28.854 31.5233 36.3254 31.5233 43.7812 31.5233C44 31.5233 44.2345 31.5233 44.5315 31.5233Z" fill="#0E141E"/>
<path d="M24.8836 0.600006C29.1507 0.600006 33.4179 0.600006 37.7007 0.600006C40.2016 0.600006 41.749 2.1493 41.749 4.65321C41.749 6.04601 41.749 7.42317 41.749 8.81597C41.749 9.55149 41.3895 9.97403 40.7955 9.97403C40.2172 9.95838 39.8733 9.53584 39.8733 8.80032C39.8733 7.37622 39.8733 5.95212 39.8733 4.52802C39.8733 3.26041 39.0918 2.49359 37.8257 2.49359C29.2133 2.49359 20.5852 2.49359 11.9727 2.49359C10.6597 2.49359 9.92511 3.24476 9.92511 4.57497C9.92511 13.0883 9.92511 21.6016 9.92511 30.1149C9.92511 31.0851 9.64376 31.5233 9.01853 31.539C8.36205 31.5546 8.04944 31.1008 8.04944 30.0992C8.04944 21.6485 8.04944 13.1978 8.04944 4.74711C8.04944 2.13365 9.56561 0.615654 12.1915 0.615654C16.4118 0.600005 20.6477 0.600006 24.8836 0.600006Z" fill="#0E141E"/>
<path d="M39.8733 45.5922C39.8733 42.384 39.8733 39.2698 39.8733 36.1399C39.8733 35.8426 39.8577 35.5452 39.8733 35.2636C39.9202 34.7158 40.311 34.3402 40.8268 34.3559C41.3113 34.3715 41.6865 34.7315 41.7334 35.2479C41.749 35.4044 41.7334 35.5609 41.7334 35.7174C41.7334 40.1462 41.7334 44.575 41.7334 49.0194C41.7334 51.5546 40.1859 53.1039 37.6538 53.1039C31.9799 53.1039 26.306 53.1039 20.6321 53.1039C20.4758 53.1039 20.3195 53.1196 20.1632 53.1039C19.6474 53.057 19.2878 52.6657 19.2722 52.1806C19.2722 51.6955 19.6161 51.3042 20.1319 51.2416C20.3195 51.226 20.5227 51.226 20.7102 51.226C26.3216 51.226 31.9486 51.226 37.56 51.226C39.1856 51.226 39.8577 50.5531 39.8577 48.9099C39.8577 48.456 39.8577 48.0179 39.8577 47.4858C39.6076 47.4858 39.3732 47.4858 39.1543 47.4858C32.9959 47.4858 26.8218 47.4858 20.6633 47.4858C20.4758 47.4858 20.2726 47.5014 20.085 47.4701C19.5848 47.3762 19.2722 47.0632 19.2722 46.5468C19.2722 46.0304 19.5692 45.7174 20.085 45.6235C20.2726 45.5922 20.4758 45.6078 20.6633 45.6078C26.8062 45.6078 32.949 45.6078 39.0918 45.6078C39.3419 45.5922 39.5764 45.5922 39.8733 45.5922Z" fill="#0E141E"/>
<path d="M30.0574 14.6532C32.9021 14.6532 35.7469 14.6532 38.5917 14.6532C39.5139 14.6532 39.7483 14.8723 39.8734 15.78C39.9828 16.672 40.6705 17.3449 41.5771 17.4545C42.4524 17.564 42.6712 17.8144 42.6869 18.7064C42.6869 21.0069 42.6869 23.3074 42.6869 25.6235C42.6869 26.4842 42.4524 26.7502 41.5615 26.8598C40.6549 26.9693 39.9984 27.6423 39.8734 28.5499C39.764 29.4419 39.5139 29.661 38.6385 29.661C32.8865 29.661 27.1344 29.661 21.3824 29.661C20.8353 29.661 20.4133 29.5045 20.2413 28.9568C20.085 28.4404 20.4445 27.877 21.0229 27.7988C21.2104 27.7675 21.4136 27.7831 21.6012 27.7831C26.9 27.7831 32.2144 27.7831 37.5131 27.7988C37.9508 27.7988 38.154 27.6736 38.3103 27.2667C38.6854 26.2964 39.4201 25.6235 40.3892 25.2479C40.6862 25.1383 40.8112 25.0132 40.8112 24.6845C40.7956 23.01 40.7956 21.3199 40.8112 19.6454C40.8112 19.348 40.733 19.2072 40.4361 19.0977C39.3888 18.7221 38.6385 17.9865 38.2634 16.938C38.1227 16.5311 37.8883 16.5311 37.56 16.5311C32.2613 16.5311 26.9469 16.5311 21.6481 16.5311C20.6477 16.5311 20.1945 16.2182 20.2101 15.5765C20.2257 14.9349 20.6634 14.6689 21.6325 14.6689C24.446 14.6532 27.2595 14.6532 30.0574 14.6532Z" fill="#0E141E"/>
<path d="M9.78451 34.3715C9.51879 36.2651 9.23744 38.1274 8.97172 40.0053C8.6591 42.1806 8.34649 44.3715 8.03388 46.5468C7.9401 47.1728 7.50244 47.5327 6.95537 47.4545C6.42393 47.3762 6.08006 46.9067 6.17384 46.2808C6.72091 42.384 7.28361 38.4873 7.84631 34.5906C7.90884 34.1681 7.95573 33.7455 8.03388 33.323C8.11203 32.8692 8.37776 32.5562 8.83104 32.5092C12.0822 32.1806 14.4424 33.8551 15.2552 36.4842C15.4272 37.0476 15.4897 37.6736 15.5053 38.2682C15.5366 39.7862 15.5053 41.3199 15.5209 42.8379C15.5209 43.057 15.5678 43.323 15.7085 43.4639C17.2247 45.0601 17.9906 47.0319 18.1625 49.1603C18.3344 51.3981 18.2875 53.636 18.3188 55.8895C18.3188 56.4529 17.9124 56.8285 17.4122 56.8441C16.8808 56.8598 16.4744 56.4685 16.4588 55.8739C16.4431 54.3559 16.4588 52.8222 16.4588 51.3042C16.4588 49.8488 16.2868 48.4247 15.771 47.0632C15.3959 46.093 14.8644 45.2166 14.0829 44.4967C13.8328 44.262 13.6765 43.8238 13.6609 43.4795C13.614 41.6642 13.6609 39.8488 13.6296 38.0335C13.614 35.9365 11.9103 34.3089 9.78451 34.3715Z" fill="#0E141E"/>
<path d="M54.8477 19.348C54.8477 18.9881 54.7852 18.6908 54.8633 18.456C54.9727 18.143 55.1603 17.7205 55.426 17.5953C55.6918 17.4701 56.2076 17.5484 56.4264 17.7518C57.7237 18.9725 58.9585 20.2401 60.209 21.5077C60.5998 21.9146 60.5998 22.3997 60.1934 22.8222C58.9742 24.0742 57.7394 25.3261 56.4577 26.5311C56.2388 26.7346 55.7699 26.7815 55.4573 26.7346C55.0353 26.6563 54.8633 26.2651 54.8633 25.8269C54.8633 25.5609 54.8633 25.2948 54.8633 24.9662C53.988 24.9662 53.144 24.9662 52.3155 24.9662C51.2996 24.9662 50.2836 24.9818 49.2676 24.9662C48.6893 24.9505 48.2829 24.528 48.3141 24.0116C48.3297 23.4952 48.7049 23.1196 49.2832 23.1039C51.4402 23.0883 53.6129 23.0883 55.7699 23.1196C56.0981 23.1196 56.4108 23.3856 56.7859 23.5421C57.161 23.1509 57.6299 22.6501 58.0832 22.1962C57.6143 21.7581 57.1141 21.2729 56.6921 20.866C56.3326 20.9756 55.9262 21.2103 55.5042 21.2103C53.1596 21.2416 50.8306 21.226 48.4861 21.226C47.8452 21.226 47.4544 20.9286 47.3763 20.4122C47.2981 19.8019 47.7514 19.3637 48.4704 19.3637C50.3617 19.3637 52.253 19.3637 54.1443 19.3637C54.3632 19.348 54.5664 19.348 54.8477 19.348Z" fill="#0E141E"/>
<path d="M19.2723 21.6798C19.2723 25.7487 19.2723 29.8019 19.2723 33.8707C19.2723 34.0585 19.2879 34.262 19.2566 34.4498C19.1629 34.9506 18.8503 35.2635 18.3344 35.2635C17.8186 35.2635 17.506 34.9662 17.4122 34.4498C17.381 34.262 17.3966 34.0585 17.3966 33.8707C17.3966 25.7487 17.3966 17.6266 17.3966 9.50454C17.3966 9.44194 17.3966 9.39499 17.3966 9.3324C17.3966 8.53427 17.7405 8.11174 18.3344 8.11174C18.9284 8.11174 19.2723 8.54992 19.2723 9.3324C19.2723 13.4482 19.2723 17.564 19.2723 21.6798Z" fill="#0E141E"/>
<path d="M24.8837 42.7753C24.2429 42.7753 23.602 42.7909 22.9612 42.7753C21.4137 42.7283 20.1945 41.4764 20.2258 39.9271C20.2414 38.4247 21.4606 37.1884 22.9768 37.1571C24.2585 37.1415 25.5558 37.1258 26.8375 37.1571C28.3693 37.1884 29.5729 38.4247 29.5729 39.9427C29.5885 41.4764 28.3693 42.7283 26.8219 42.7753C26.1654 42.7909 25.5246 42.7753 24.8837 42.7753ZM24.8525 40.8973C25.4621 40.8973 26.056 40.913 26.6656 40.8973C27.2908 40.8817 27.7129 40.4905 27.6972 39.9427C27.6816 39.4106 27.2908 39.0351 26.6812 39.0351C25.4933 39.0194 24.3054 39.0194 23.1175 39.0351C22.4922 39.0351 22.0858 39.4419 22.0858 39.9897C22.1015 40.5218 22.4922 40.8817 23.1018 40.8973C23.6802 40.913 24.2741 40.8973 24.8525 40.8973Z" fill="#0E141E"/>
<path d="M26.7436 25.9052C24.6804 25.9052 23.0079 24.1994 23.0079 22.1337C23.0236 20.0836 24.696 18.4247 26.728 18.4091C28.8069 18.4091 30.495 20.0836 30.495 22.1493C30.5106 24.2307 28.8225 25.9052 26.7436 25.9052ZM28.6349 22.1337C28.6193 21.1164 27.7753 20.2714 26.7593 20.287C25.7277 20.287 24.8992 21.1321 24.8992 22.1493C24.8992 23.1978 25.7589 24.0429 26.8062 24.0272C27.8222 24.0116 28.6349 23.1509 28.6349 22.1337Z" fill="#0E141E"/>
<path d="M24.8838 5.29485C25.384 5.29485 25.8216 5.70173 25.8216 6.21816C25.8216 6.71894 25.3996 7.15713 24.8994 7.15713C24.3993 7.15713 23.9616 6.75024 23.9616 6.23381C23.946 5.71738 24.368 5.29485 24.8838 5.29485Z" fill="#0E141E"/>
</svg>
