<svg width="60" height="60" viewBox="0 0 60 60" fill="none" xmlns="http://www.w3.org/2000/svg">
<path d="M0 26.9413C0.438413 25.5802 1.23695 24.5476 2.67745 24.0939C1.09603 22.06 0.876826 20.5111 1.9572 18.9622C2.97495 17.4915 4.54071 17.0535 6.63882 17.6949C6.95198 16.5528 7.57828 15.6141 8.68997 15.0821C9.80166 14.5502 10.9134 14.6597 12.1346 15.1447C12.1346 14.8475 12.1346 14.6284 12.1346 14.4094C12.1346 10.6858 12.1346 6.96219 12.1346 3.22295C12.1346 1.07953 13.2307 0 15.3914 0C22.6252 0 29.8434 0 37.0772 0C39.1597 0 40.2714 1.09518 40.2714 3.16037C40.2714 10.0913 40.2714 17.0222 40.2714 23.9374C40.2714 24.1565 40.2714 24.3755 40.2244 24.5789C40.1148 25.0326 39.786 25.2829 39.3319 25.2829C38.8778 25.2829 38.549 25.0326 38.4551 24.5789C38.4081 24.3286 38.4081 24.0782 38.4081 23.8279C38.4081 16.9909 38.4081 10.1695 38.4081 3.33246C38.4081 2.09648 38.1732 1.87744 36.9363 1.87744C35.2609 1.87744 33.5856 1.87744 31.8789 1.87744C31.8632 2.31552 31.8632 2.70665 31.8163 3.08214C31.6753 4.49022 30.548 5.5854 29.1388 5.61669C27.2129 5.64798 25.2714 5.64798 23.3455 5.61669C21.8893 5.60104 20.762 4.50587 20.6367 3.05085C20.6054 2.691 20.6367 2.31551 20.6367 1.90874C20.4019 1.89309 20.2296 1.87744 20.0574 1.87744C18.4603 1.87744 16.8476 1.87744 15.2505 1.87744C14.3737 1.87744 14.0605 2.19035 14.0449 3.08214C14.0449 3.19166 14.0449 3.31682 14.0449 3.42634C14.0449 16.3651 14.0449 29.3038 14.0449 42.2425C14.0449 42.4928 14.0449 42.7432 14.0449 43.0561C22.1712 43.0561 30.2662 43.0561 38.4394 43.0561C38.4394 42.7588 38.4238 42.4459 38.4394 42.133C38.4864 41.601 38.8465 41.2412 39.3319 41.2256C39.833 41.2099 40.2714 41.5698 40.2714 42.133C40.287 44.12 40.3183 46.1226 40.24 48.1095C40.1931 49.4707 39.0031 50.5033 37.6409 50.5971C37.4687 50.6128 37.2964 50.5971 37.1085 50.5971C29.8591 50.5971 22.6096 50.5971 15.3758 50.5971C13.262 50.5971 12.166 49.502 12.166 47.3898C12.166 45.575 12.1816 43.7601 12.1503 41.9453C12.1503 41.648 12.0094 41.2881 11.8058 41.0848C9.62943 38.8788 7.4217 36.6884 5.22964 34.4981C4.33716 33.6219 3.19415 33.5593 2.42693 34.3572C1.69102 35.0926 1.73799 36.2973 2.58351 37.1421C4.97912 39.5515 7.39039 41.9452 9.786 44.3546C9.94258 44.5111 10.0992 44.6519 10.2088 44.8396C10.4593 45.2308 10.3967 45.6376 10.0678 45.9661C9.73903 46.2947 9.34759 46.3416 8.94049 46.1226C8.76826 46.0287 8.643 45.8722 8.50208 45.7314C6.12212 43.3533 3.75783 40.9752 1.36221 38.6128C0.704592 37.9557 0.297494 37.1891 0.0156574 36.3286C0.0156574 35.8592 0.0156574 35.3898 0.0156574 34.9205C0.45407 33.5437 1.25261 32.5111 2.75574 32.0574C1.65971 30.9153 0.39144 29.9609 0.0156574 28.3651C-2.39149e-07 27.8801 0 27.4107 0 26.9413ZM38.3768 45.0274C30.2192 45.0274 22.1242 45.0274 13.9979 45.0274C13.9979 45.8722 13.9979 46.6702 13.9979 47.4681C13.9979 48.4381 14.2954 48.7353 15.2505 48.7353C18.6639 48.7353 22.0772 48.7353 25.5062 48.7353C29.3893 48.7353 33.2724 48.7353 37.1555 48.7353C38.001 48.7353 38.3455 48.4381 38.3611 47.6558C38.3925 46.7953 38.3768 45.9348 38.3768 45.0274ZM12.1346 38.7379C12.1346 37.0482 12.1503 35.5306 12.119 34.013C12.119 33.7001 11.9624 33.3246 11.7432 33.1056C9.86429 31.1812 7.93841 29.2881 6.04384 27.3794C5.66805 27.0039 5.30793 26.6128 4.91649 26.2686C4.29018 25.7366 3.35073 25.7053 2.67745 26.1591C2.00417 26.6128 1.70668 27.4263 1.98852 28.2243C2.12943 28.6154 2.3643 29.0065 2.66179 29.2881C5.63674 32.292 8.643 35.2803 11.6493 38.2842C11.7589 38.3937 11.8841 38.5033 12.1346 38.7379ZM12.0564 30.7119C12.0877 30.5711 12.119 30.4928 12.119 30.4303C12.119 28.8814 12.1346 27.3481 12.1033 25.7992C12.1033 25.5958 11.9468 25.3612 11.8058 25.2047C11.1012 24.4694 10.381 23.7653 9.66074 23.0456C8.59603 21.9817 7.54697 20.9022 6.46659 19.8696C5.30793 18.7588 3.56993 19.1812 3.20981 20.6519C3.02192 21.4029 3.30376 22.013 3.85177 22.545C6.45093 25.1265 9.0501 27.7236 11.6493 30.3207C11.7589 30.4459 11.8841 30.5554 12.0564 30.7119ZM12.0407 22.764C12.0877 22.6232 12.119 22.5763 12.119 22.5293C12.119 20.9648 12.119 19.4159 12.119 17.8514C12.119 17.7419 12.119 17.601 12.0407 17.5228C11.5397 16.9283 10.9134 16.5684 10.1148 16.631C9.39456 16.6936 8.90918 17.0691 8.62734 17.6949C8.31419 18.399 8.39248 19.103 8.92484 19.6506C9.92692 20.6988 10.9603 21.6845 12.0407 22.764ZM29.9373 1.90874C27.4165 1.90874 24.9582 1.90874 22.453 1.90874C22.453 2.23729 22.4373 2.55019 22.453 2.8631C22.5 3.42634 22.8444 3.75489 23.4081 3.75489C25.2557 3.77054 27.119 3.77054 28.9666 3.75489C29.5302 3.75489 29.8591 3.41069 29.906 2.84746C29.953 2.5502 29.9373 2.25293 29.9373 1.90874Z" fill="#0E141E"/>
<path d="M26.6022 59.9687C25.694 59.7497 24.7702 59.5932 23.8778 59.3116C22.2337 58.811 20.7776 57.9192 19.5406 56.7458C18.6481 55.9009 17.787 55.0248 16.9258 54.1486C16.4561 53.6793 16.4404 53.1473 16.8475 52.7562C17.2389 52.3651 17.7713 52.3807 18.241 52.8344C18.9769 53.5541 19.6972 54.3051 20.4331 55.0248C22.4842 57.0587 24.9581 58.0913 27.8548 58.0913C29.9373 58.0913 32.0354 58.1069 34.1178 58.0913C37.6251 58.06 40.4592 56.6363 42.5573 53.8201C44.0917 51.7549 45.5949 49.6584 47.0823 47.5619C49.5249 44.1043 49.2744 39.3794 46.3621 35.9061C45.407 34.764 44.217 33.8097 43.074 32.8396C40.7567 30.837 38.3924 28.8814 36.0437 26.91C35.9185 26.8162 35.7932 26.7223 35.6836 26.6284C33.7264 28.2712 33.5698 31.2125 35.3548 33.09C36.7796 34.5763 38.2828 36.0157 39.7389 37.4863C39.8955 37.6428 40.146 37.8618 40.146 38.0339C40.1304 38.3938 40.0677 38.8162 39.8642 39.0821C39.5823 39.4263 39.1126 39.3951 38.7525 39.1134C38.4706 38.91 38.2358 38.6284 37.9853 38.3938C36.7483 37.1734 35.527 35.9374 34.3057 34.7014C31.55 31.9322 31.55 28.0834 34.3057 25.3142C35.5427 24.0782 35.6053 24.0626 36.9205 25.1891C39.8955 27.6923 42.8704 30.1799 45.8297 32.6988C48.9299 35.3273 50.6836 38.6128 50.6209 42.7432C50.574 44.9961 49.8381 47.0143 48.5228 48.8449C47.1606 50.7067 45.7984 52.5528 44.4832 54.4459C42.3068 57.5593 39.3944 59.4524 35.6053 59.9218C35.527 59.9374 35.4644 59.9844 35.3861 60C32.4581 59.9687 29.5302 59.9687 26.6022 59.9687Z" fill="#0E141E"/>
<path d="M51.5606 15.0039C56.2266 15.0039 60.0157 18.8057 60 23.4681C59.9844 28.0991 56.1952 31.8696 51.5606 31.8696C46.8946 31.8696 43.1055 28.0678 43.1211 23.4055C43.1368 18.7745 46.9259 15.0039 51.5606 15.0039ZM58.1368 23.4211C58.1368 19.807 55.1775 16.8657 51.5763 16.8657C47.975 16.8657 45.0157 19.8227 45.0157 23.4211C45.0157 27.0196 47.975 29.9765 51.5763 29.9765C55.1775 29.9765 58.1368 27.0352 58.1368 23.4211Z" fill="#0E141E"/>
<path d="M26.0856 36.5476C24.238 36.5476 22.3747 36.5789 20.5271 36.5476C18.2098 36.5163 16.3309 34.7953 15.9864 32.4485C15.6733 30.2582 17.0981 28.0678 19.2902 27.4107C19.6973 27.2855 20.1357 27.2073 20.5584 27.2073C23.6586 27.1917 26.7588 27.1917 29.8747 27.1917C30.3288 27.1917 30.7359 27.3012 30.8611 27.7549C30.9394 28.0522 30.9081 28.5059 30.7202 28.7093C30.501 28.9439 30.0783 29.0535 29.7338 29.0535C26.7275 29.0847 23.7213 29.0535 20.715 29.0691C18.7422 29.0847 17.4113 30.884 17.9749 32.7145C18.3351 33.8879 19.4154 34.6701 20.7307 34.6858C24.2849 34.6858 27.8392 34.6858 31.3935 34.6858C31.5657 34.6858 31.738 34.6701 31.9259 34.6858C32.4739 34.7327 32.8497 35.1082 32.8497 35.6245C32.8497 36.1408 32.4739 36.5319 31.9102 36.5476C30.9394 36.5632 29.953 36.5632 28.9822 36.5632C27.9958 36.5476 27.0407 36.5476 26.0856 36.5476Z" fill="#0E141E"/>
<path d="M27.1817 12.1877C27.4949 12.1877 27.7454 12.1877 27.9959 12.1877C28.7005 12.2034 29.0919 12.5476 29.0763 13.1421C29.0763 13.721 28.6692 14.0495 27.9646 14.0652C27.4166 14.0652 26.8686 14.0652 26.3205 14.0652C25.6942 14.0808 25.3185 14.425 25.3028 14.957C25.2871 15.5202 25.6473 15.88 26.3049 15.9426C27.7297 16.0678 28.7631 16.897 29.045 18.1643C29.3111 19.4003 28.7318 20.5424 27.4949 21.2777C27.3539 21.3559 27.2443 21.5906 27.213 21.7627C27.1661 22.013 27.213 22.2634 27.1974 22.5137C27.1504 23.0613 26.759 23.4368 26.2423 23.4211C25.7569 23.4055 25.3811 23.0456 25.3341 22.5293C25.3185 22.2164 25.3341 21.9192 25.3341 21.5593C24.9896 21.5593 24.6922 21.575 24.4103 21.5593C23.8153 21.528 23.4395 21.1525 23.4395 20.6206C23.4395 20.073 23.8153 19.7132 24.426 19.6975C25.0053 19.6819 25.6003 19.6975 26.1796 19.6975C26.8059 19.6819 27.1817 19.3377 27.1974 18.8057C27.213 18.2425 26.8529 17.8827 26.1953 17.8201C24.7704 17.6949 23.737 16.8501 23.4552 15.5984C23.189 14.3624 23.7684 13.2203 25.0053 12.485C25.1462 12.4068 25.2558 12.1721 25.2871 12C25.3341 11.734 25.2871 11.4524 25.3185 11.1864C25.3654 10.6858 25.7882 10.3103 26.2736 10.3416C26.7903 10.3729 27.1034 10.6701 27.1661 11.1708C27.213 11.4681 27.1817 11.8123 27.1817 12.1877Z" fill="#0E141E"/>
<path d="M26.289 30.9309C27.4634 30.9309 28.6377 30.9309 29.812 30.9309C30.5166 30.9309 30.9237 31.2751 30.9394 31.8383C30.955 32.4329 30.5166 32.7927 29.7963 32.7927C27.432 32.7927 25.0677 32.7927 22.7035 32.7927C21.9989 32.7927 21.5918 32.4485 21.5761 31.8853C21.5604 31.2907 21.9832 30.9309 22.7191 30.9309C23.9091 30.9153 25.0991 30.9309 26.289 30.9309Z" fill="#0E141E"/>
<path d="M50.5897 24.0156C51.6388 22.9674 52.5939 21.9817 53.5803 21.0587C53.8152 20.8396 54.191 20.6362 54.4885 20.6675C54.7703 20.6988 55.1617 20.9961 55.24 21.2621C55.3183 21.5437 55.2087 22.013 55.0052 22.2477C54.2849 23.0613 53.4864 23.8123 52.7035 24.5789C52.2807 25.0013 51.858 25.4394 51.4196 25.8618C50.8872 26.3781 50.4175 26.3781 49.8851 25.8774C49.3058 25.3299 48.7421 24.751 48.1941 24.1877C47.74 23.7184 47.7244 23.1864 48.1158 22.7953C48.5073 22.4042 49.0396 22.4198 49.5093 22.8579C49.6972 23.03 49.8695 23.2021 50.0417 23.3898C50.1983 23.5619 50.3705 23.7653 50.5897 24.0156Z" fill="#0E141E"/>
</svg>
