<svg width="60" height="61" viewBox="0 0 60 61" fill="none" xmlns="http://www.w3.org/2000/svg">
<path d="M39.8623 60.0978C38.6881 59.9568 37.4981 59.8785 36.3239 59.6435C27.1177 57.7952 20.5261 49.8695 20.3852 40.4714C20.3852 40.2677 20.3852 40.0485 20.3852 39.8448C19.3206 39.7665 18.3029 39.7508 17.3008 39.5942C9.73856 38.4508 4.4622 34.2999 1.42477 27.2983C0.673244 25.5753 0.266166 23.7427 0.0939409 21.8631C0.078284 21.7065 0.0313137 21.5655 0 21.4088C0 20.4377 0 19.4509 0 18.4798C0.234853 17.258 0.375764 16.0049 0.704558 14.8145C1.00204 13.7024 1.45609 12.6373 1.86317 11.5721C2.11367 10.9456 2.56772 10.7576 3.05309 10.9613C3.5541 11.1806 3.72633 11.6818 3.44451 12.2927C2.23893 14.9085 1.69094 17.6496 1.75357 20.5317C1.92579 28.8647 8.36076 36.3205 16.5806 37.7146C21.4029 38.5291 25.8495 37.6206 29.9359 34.9108C29.9985 34.8638 30.0611 34.8168 30.1394 34.7855C30.6091 34.5192 31.1102 34.6132 31.3763 35.0048C31.6581 35.412 31.5799 35.9446 31.0945 36.2266C29.9359 36.9001 28.7616 37.558 27.5561 38.1688C27.2429 38.3411 27.102 38.4978 27.055 38.858C26.4288 45.9693 31.1728 52.0937 38.2184 53.2528C45.2953 54.4119 52.3095 49.196 53.2176 42.0847C54.1414 34.7855 49.413 28.3791 42.1952 27.2044C41.0679 27.0164 39.9093 27.1574 38.7507 27.126C38.3749 27.1104 38.2184 27.2983 38.0775 27.6273C37.1224 29.9298 35.7759 31.9661 34.038 33.7517C33.6309 34.1746 33.1142 34.2216 32.7385 33.877C32.3627 33.5324 32.3627 33.0312 32.7385 32.577C32.8011 32.4986 32.8794 32.436 32.942 32.3577C34.3981 30.807 35.5567 29.0527 36.4022 27.1104C41.0209 16.4905 34.3824 4.10064 22.9529 2.20535C15.9387 1.04625 10.13 3.36445 5.57384 8.84669C5.49555 8.94067 5.43293 9.03465 5.35464 9.12863C4.93191 9.64553 4.39957 9.75517 3.9925 9.42624C3.60108 9.11297 3.53845 8.53342 3.96118 8.07917C5.04151 6.90441 6.0592 5.63566 7.29609 4.63319C18.8978 -4.7336 35.9638 1.29687 39.1891 15.8953C39.4396 17.0387 39.4866 18.2135 39.5962 19.3726C39.6275 19.7015 39.5962 20.0305 39.5962 20.3594C40.6921 20.4534 41.7255 20.469 42.7432 20.61C48.7398 21.4402 53.3899 24.4162 56.7561 29.4286C57.1475 30.0238 57.1005 30.4937 56.6621 30.8226C56.2081 31.1359 55.6914 30.9793 55.2843 30.3841C52.5131 26.2176 48.6771 23.5861 43.7766 22.5679C42.3987 22.286 40.9583 22.239 39.5492 22.0667C39.33 23.2415 39.1265 24.2439 38.9229 25.3091C44.3402 25.0898 48.8181 27.0007 52.1216 31.3395C54.4232 34.3783 55.3626 37.8556 55.0182 41.6461C54.3136 49.3369 47.769 55.2578 40.0815 55.1794C35.7602 55.1324 32.0965 53.5034 29.1687 50.3394C26.2565 47.1754 25.0196 43.3848 25.2545 39.093C24.2055 39.2966 23.2034 39.5002 22.1388 39.7195C22.0448 41.0666 22.1858 42.4137 22.4519 43.7607C23.9237 51.2009 29.9046 56.9494 37.4042 58.1242C46.6574 59.5809 55.6288 53.5504 57.7581 44.4499C58.5879 40.8943 58.3844 37.4013 57.1162 33.971C57.0692 33.8614 57.0222 33.7517 56.9909 33.6421C56.85 33.1095 57.0536 32.6396 57.5076 32.483C57.9773 32.3263 58.4627 32.5143 58.6349 33.0469C59.042 34.3939 59.5273 35.7253 59.7465 37.1037C61.3435 47.144 55.253 56.6518 45.4518 59.3616C44.074 59.7375 42.6179 59.8315 41.1932 60.0665C40.9896 60.0978 40.7704 60.1291 40.5669 60.1448C40.332 60.0978 40.0972 60.0978 39.8623 60.0978Z" fill="#0E141E"/>
<path d="M37.7058 34.4V47H39.8478V34.4H37.7058ZM38.9118 36.272H41.5758C42.1398 36.272 42.6198 36.338 43.0158 36.47C43.4238 36.59 43.7358 36.788 43.9518 37.064C44.1798 37.34 44.2938 37.694 44.2938 38.126C44.2938 38.57 44.1798 38.93 43.9518 39.206C43.7358 39.482 43.4238 39.686 43.0158 39.818C42.6198 39.938 42.1398 39.998 41.5758 39.998H38.9118V41.87H41.5758C42.4998 41.87 43.3158 41.75 44.0238 41.51C44.7318 41.258 45.2898 40.856 45.6978 40.304C46.1058 39.74 46.3098 39.014 46.3098 38.126C46.3098 37.226 46.1058 36.506 45.6978 35.966C45.2898 35.414 44.7318 35.018 44.0238 34.778C43.3158 34.526 42.4998 34.4 41.5758 34.4H38.9118V36.272ZM39.5958 45.308H43.2858V43.562H39.5958V45.308ZM35.5458 41.816H39.2358V40.07H35.5458V41.816ZM35.5458 45.308H39.2358V43.562H35.5458V45.308Z" fill="#0E141E"/>
<path d="M34.7582 19.9678C34.7112 28.2538 27.9787 34.9265 19.7119 34.8795C11.5077 34.8325 4.83792 28.0972 4.88489 19.8738C4.93186 11.6035 11.6486 4.94647 19.8842 4.99346C28.104 5.04045 34.8051 11.7914 34.7582 19.9678ZM33.0046 19.9208C32.9733 12.6216 27.0393 6.73211 19.7746 6.76343C12.5254 6.79476 6.63846 12.7156 6.65411 19.9678C6.66977 27.2513 12.5881 33.1565 19.8685 33.1252C27.1176 33.0938 33.0359 27.1417 33.0046 19.9208Z" fill="#0E141E"/>
<path d="M47.9099 13.6241C47.9099 11.3215 47.9099 9.15996 47.9099 6.93574C47.6907 6.92008 47.4872 6.90441 47.2836 6.90441C45.8745 6.90441 44.4654 6.90441 43.0719 6.90441C42.8997 6.90441 42.7275 6.90441 42.5396 6.88875C42.0073 6.84176 41.6785 6.51282 41.6785 6.04292C41.6785 5.57301 41.9916 5.18142 42.5083 5.16576C44.622 5.1501 46.72 5.13443 48.8336 5.16576C49.4286 5.16576 49.6791 5.55735 49.6948 6.27787C49.6948 8.47076 49.6948 10.648 49.6948 12.8409C49.6948 13.0602 49.6948 13.2638 49.6948 13.6241C50.1018 13.2951 50.415 13.0445 50.7438 12.7782C51.0569 12.512 51.3701 12.2457 51.6832 11.9951C52.1216 11.6661 52.6226 11.7131 52.9357 12.089C53.2489 12.465 53.2019 12.9819 52.7948 13.3421C51.6832 14.2976 50.5559 15.2217 49.4286 16.1616C49.0215 16.4905 48.5988 16.4905 48.2074 16.1616C47.0801 15.2374 45.9528 14.2976 44.8411 13.3421C44.4184 12.9819 44.3714 12.4806 44.6846 12.089C44.9977 11.6975 45.5301 11.6505 45.9841 12.0107C46.5947 12.5276 47.1897 13.0445 47.9099 13.6241Z" fill="#0E141E"/>
<path d="M12.1183 46.6271C12.1183 48.914 12.1183 51.0756 12.1183 53.2998C12.3219 53.3155 12.5254 53.3311 12.7446 53.3311C14.185 53.3311 15.6255 53.3311 17.0816 53.3311C17.2381 53.3311 17.3947 53.3311 17.5513 53.3468C18.0523 53.4094 18.3967 53.7854 18.3654 54.2553C18.3185 54.7565 18.0523 55.0698 17.5513 55.0698C15.4376 55.0854 13.3396 55.0854 11.2259 55.0698C10.6309 55.0698 10.3648 54.6939 10.3648 53.9733C10.3648 51.7804 10.3648 49.6032 10.3648 47.4103C10.3648 47.191 10.3648 46.9874 10.3648 46.6741C10.1925 46.7838 10.0673 46.8621 9.9577 46.9404C9.40971 47.379 8.89303 47.8489 8.32938 48.2718C7.90665 48.5851 7.42129 48.5224 7.12381 48.1308C6.82632 47.7392 6.81067 47.3007 7.18643 46.9717C8.34504 45.9693 9.53496 44.9825 10.7405 44.0113C11.085 43.7294 11.4921 43.7607 11.8209 44.0427C12.9795 44.9981 14.1381 45.9536 15.281 46.9247C15.6724 47.2693 15.6881 47.7549 15.3906 48.1308C15.0775 48.5224 14.5765 48.5851 14.1381 48.2405C13.4648 47.7549 12.8386 47.2224 12.1183 46.6271Z" fill="#0E141E"/>
<path d="M20.62 27.22C20.62 27.5803 20.6357 27.9249 20.62 28.2695C20.5887 28.8334 20.2443 29.1623 19.7276 29.1623C19.2266 29.1623 18.8821 28.802 18.8665 28.2538C18.8508 27.9405 18.8665 27.6273 18.7569 27.455C17.8331 27.0791 16.8937 26.7345 15.9856 26.2959C15.422 26.0139 15.2811 25.4814 15.5472 25.0271C15.8134 24.5729 16.2987 24.5102 16.8781 24.7922C17.473 25.0898 18.0993 25.3404 18.7882 25.638C18.8195 25.3404 18.8508 25.2151 18.8508 25.0898C18.8508 23.5078 18.8508 21.9257 18.8665 20.3437C18.8665 20.0305 18.7882 19.8425 18.475 19.7329C18.2245 19.6389 17.9897 19.4822 17.7392 19.3569C16.3301 18.6051 15.6098 17.4616 15.829 15.864C16.0482 14.2819 16.9094 13.1855 18.475 12.6843C18.5846 12.6529 18.6942 12.6059 18.8508 12.5589C18.8508 12.2613 18.8352 11.9481 18.8508 11.6348C18.8821 11.0866 19.2266 10.7263 19.7119 10.7263C20.1816 10.7263 20.6357 11.0709 20.5731 11.5565C20.4791 12.371 20.8392 12.6059 21.5438 12.7782C22.0135 12.8879 22.4675 13.2012 22.8746 13.4988C23.3287 13.812 23.3756 14.3446 23.0782 14.7362C22.7807 15.1278 22.311 15.1904 21.8256 14.8928C21.4655 14.6735 21.0897 14.4856 20.5887 14.2193C20.5887 15.4567 20.5887 16.5375 20.5887 17.6339C20.5887 18.6991 20.5887 18.6991 21.5751 19.1063C23.2347 19.7798 24.2211 21.1739 24.1898 22.8342C24.1585 24.6982 22.9529 26.4212 21.2463 27.0164C21.0741 27.0791 20.8705 27.1417 20.62 27.22ZM20.667 20.6727C20.667 22.239 20.667 23.7584 20.667 25.2934C21.7317 24.9645 22.4832 23.8837 22.4519 22.7872C22.4362 21.7065 21.81 20.9546 20.667 20.6727ZM18.8508 14.4699C18.021 14.7518 17.5513 15.488 17.5826 16.3965C17.5983 17.1327 18.021 17.6183 18.8508 17.8376C18.8508 16.7255 18.8508 15.6133 18.8508 14.4699Z" fill="#0E141E"/>
</svg>
