<svg width="36" height="36" viewBox="0 0 36 36" fill="none" xmlns="http://www.w3.org/2000/svg">
<g clip-path="url(#clip0_0_575)">
<path d="M28.0885 3.62167L18.952 0.575214C18.6529 0.47558 18.3295 0.47558 18.0303 0.575214L8.89388 3.62167C7.44124 4.10421 6.17761 5.03226 5.28253 6.27396C4.38744 7.51566 3.90643 9.00786 3.90784 10.5385V18.0008C3.90784 29.0302 17.3245 35.1217 17.8991 35.3754C18.0855 35.4582 18.2872 35.501 18.4912 35.501C18.6951 35.501 18.8969 35.4582 19.0833 35.3754C19.6578 35.1217 33.0745 29.0302 33.0745 18.0008V10.5385C33.0759 9.00786 32.5949 7.51566 31.6998 6.27396C30.8047 5.03226 29.5411 4.10421 28.0885 3.62167ZM30.1578 18.0008C30.1578 25.956 20.9426 31.174 18.4912 32.4223C16.0368 31.1783 6.82451 25.9765 6.82451 18.0008V10.5385C6.82459 9.6202 7.11366 8.72517 7.65075 7.98026C8.18784 7.23534 8.94572 6.67833 9.81701 6.38813L18.4912 3.49626L27.1653 6.38813C28.0366 6.67833 28.7945 7.23534 29.3316 7.98026C29.8687 8.72517 30.1578 9.6202 30.1578 10.5385V18.0008Z" fill="url(#paint0_linear_0_575)"/>
<path d="M23.3034 12.6049L17.1959 18.7299L13.9234 15.3174C13.792 15.1738 13.6333 15.0579 13.4565 14.9766C13.2797 14.8954 13.0884 14.8503 12.8939 14.844C12.6994 14.8378 12.5057 14.8706 12.324 14.9404C12.1424 15.0102 11.9766 15.1157 11.8363 15.2506C11.6961 15.3855 11.5842 15.5471 11.5074 15.7258C11.4306 15.9046 11.3903 16.097 11.389 16.2916C11.3876 16.4862 11.4252 16.679 11.4996 16.8589C11.5739 17.0387 11.6835 17.2018 11.8219 17.3386L15.1848 20.8387C15.4356 21.1095 15.7388 21.3268 16.0759 21.4772C16.413 21.6275 16.7772 21.708 17.1463 21.7137H17.1944C17.5562 21.7149 17.9145 21.6442 18.2488 21.5057C18.583 21.3673 18.8863 21.1638 19.1413 20.9072L25.3713 14.6772C25.5074 14.5414 25.6153 14.3801 25.6891 14.2026C25.7628 14.0251 25.8009 13.8348 25.8011 13.6426C25.8013 13.4504 25.7637 13.26 25.6903 13.0823C25.6169 12.9046 25.5093 12.7431 25.3735 12.6071C25.2377 12.471 25.0764 12.363 24.8989 12.2893C24.7214 12.2155 24.5311 12.1775 24.3389 12.1772C24.1466 12.177 23.9563 12.2147 23.7786 12.2881C23.6009 12.3615 23.4394 12.4691 23.3034 12.6049Z" fill="url(#paint1_linear_0_575)"/>
</g>
<defs>
<linearGradient id="paint0_linear_0_575" x1="3.67742" y1="35.501" x2="37.3176" y2="30.7883" gradientUnits="userSpaceOnUse">
<stop stop-color="#ADE6E0"/>
<stop offset="1" stop-color="#26C7BC"/>
</linearGradient>
<linearGradient id="paint1_linear_0_575" x1="11.2751" y1="21.7137" x2="27.1963" y2="17.6686" gradientUnits="userSpaceOnUse">
<stop stop-color="#ADE6E0"/>
<stop offset="1" stop-color="#26C7BC"/>
</linearGradient>
<clipPath id="clip0_0_575">
<rect width="35" height="35" fill="white" transform="translate(0.990967 0.5)"/>
</clipPath>
</defs>
</svg>
