<svg width="57" height="60" viewBox="0 0 57 60" fill="none" xmlns="http://www.w3.org/2000/svg">
<path fill-rule="evenodd" clip-rule="evenodd" d="M12.3613 2.29877V4.15563C10.5937 4.15563 8.95111 4.15563 7.25494 4.13778C3.43408 4.15563 0.666626 6.90522 0.666626 10.7261V53.3805C0.666626 57.2192 3.45193 59.9866 7.3085 59.9866C21.3778 60.0045 35.4293 60.0045 49.4986 59.9866C50.1236 59.9866 50.7663 59.9152 51.3555 59.7545C54.2658 59.0046 56.1405 56.5228 56.1405 53.434V31.9372C56.1405 29.5751 56.1425 27.2111 56.1445 24.8463C56.1484 20.1149 56.1524 15.3808 56.1405 10.6547C56.1405 7.31588 53.8908 4.67341 50.6056 4.22705C49.7409 4.11744 48.8513 4.13244 47.965 4.14739C47.5521 4.15436 47.1398 4.16131 46.7312 4.15563H44.553C44.553 3.91798 44.555 3.68864 44.5571 3.46479C44.561 3.03275 44.5647 2.62112 44.553 2.2095C44.5173 0.852555 43.6602 0.0312454 42.3033 0.0133909H38.6253C37.0719 0.0133909 36.2328 0.852551 36.2328 2.40589V4.10207H20.6994C20.6994 3.87915 20.7014 3.6603 20.7034 3.44415C20.7073 3.01972 20.7112 2.60568 20.6994 2.19164C20.6815 0.870408 19.8245 0.0312454 18.5033 0.0133909C17.1999 -0.00446362 15.9144 -0.00446362 14.611 0.0133909C13.2362 0.0312454 12.3792 0.906118 12.3613 2.29877ZM2.88059 52.8805C2.88059 40.6324 2.88058 28.4377 2.86273 16.2253H53.9801V40.7573L54.0158 44.4175C54.0158 47.7384 54.0158 50.8987 53.998 54.0589C53.998 54.1303 53.9821 54.2018 53.9662 54.2732C53.9583 54.3089 53.9504 54.3446 53.9444 54.3803C53.5159 56.4336 51.8376 57.8441 49.7129 57.8619C48.1655 57.8738 46.6181 57.8699 45.0707 57.8659C44.297 57.8639 43.5233 57.8619 42.7496 57.8619H7.34421C5.7016 57.8619 4.41607 57.237 3.50549 55.8444C3.41364 55.7066 3.34393 55.554 3.26314 55.3772C3.2183 55.2791 3.17004 55.1735 3.11269 55.0588C2.73983 54.3429 2.8026 53.3083 2.88059 52.8805ZM38.3932 2.19164H42.3926C42.3926 2.8344 42.3926 3.44145 42.4104 4.13778H41.6962C40.7678 4.15563 40.2857 4.51272 40.2679 5.19119C40.2679 5.86966 40.7857 6.28032 41.7319 6.28032C42.4812 6.28032 43.2324 6.27834 43.9843 6.27635C45.49 6.27239 46.9984 6.26841 48.4988 6.28032C48.5684 6.28032 48.6382 6.28017 48.7083 6.28002C49.4117 6.27855 50.138 6.27702 50.8199 6.42315C52.7125 6.8338 54.0158 8.51213 54.0515 10.4404C54.0634 11.2115 54.0595 11.9826 54.0555 12.7642C54.0536 13.1589 54.0515 13.5563 54.0515 13.9577H2.98771C2.98771 13.4918 2.97006 13.0276 2.95251 12.5662C2.91426 11.5604 2.87654 10.5682 3.02342 9.60125C3.32695 7.63726 5.07669 6.29817 7.07639 6.28032C8.18271 6.26842 9.29696 6.27238 10.4139 6.27634C10.9733 6.27833 11.5334 6.28032 12.0935 6.28032C12.1219 6.28032 12.1554 6.28534 12.2045 6.29273C12.248 6.29927 12.3037 6.30765 12.3792 6.31603V8.15504C12.397 9.47627 13.2183 10.3511 14.5217 10.4047C15.1645 10.4404 15.8251 10.4404 16.4678 10.4047C17.1999 10.3868 17.6462 9.92263 17.6105 9.27987C17.5927 8.67282 17.1463 8.29788 16.4321 8.28002H14.5753V2.17378H18.539V4.15563C18.414 4.15563 18.289 4.15365 18.164 4.15167C17.9141 4.1477 17.6641 4.14373 17.4141 4.15563C16.8071 4.19134 16.3964 4.60199 16.3786 5.17334C16.3607 5.74468 16.7357 6.19104 17.3249 6.28032C17.4861 6.30719 17.6574 6.30373 17.8237 6.30037C17.8784 6.29927 17.9325 6.29817 17.9855 6.29817H35.3222H36.2328V8.03005C36.2506 9.58339 37.0898 10.4226 38.6431 10.4404C38.8217 10.4404 39.0002 10.4424 39.1787 10.4444C39.5358 10.4483 39.8929 10.4523 40.25 10.4404C41.0356 10.4047 41.482 9.9762 41.4641 9.31558C41.4463 8.67282 40.9999 8.29787 40.2322 8.29787H38.5538C38.5343 8.29787 38.5147 8.28712 38.4862 8.27153C38.4628 8.25869 38.4334 8.24257 38.3932 8.22645V2.19164Z" fill="white"/>
<path fill-rule="evenodd" clip-rule="evenodd" d="M41.5534 52.8805H2.88059C2.8026 53.3083 2.73983 54.3429 3.11269 55.0588H4.00542C16.45 55.0588 28.9124 55.0588 41.357 55.0766C42.5354 55.0945 43.446 54.7195 44.2851 53.8982C47.3204 50.8987 50.3735 47.9348 53.4266 44.9531C53.5873 44.8103 53.748 44.6675 54.0158 44.4175L53.9801 40.7573H53.2659H44.9636C42.7854 40.7573 41.5534 41.9714 41.5534 44.1318V52.8805ZM44.7136 42.882H52.3732C52.2661 43.0427 52.2482 43.0963 52.2304 43.132L52.0344 43.323C49.2974 45.9903 46.5753 48.6429 43.7852 51.3807C43.7495 51.1665 43.7138 51.0415 43.7138 50.8987V44.0068C43.7138 43.2391 44.0173 42.882 44.7136 42.882Z" fill="#26C7BC"/>
<path d="M28.3768 50.1309C25.7879 50.1309 23.199 50.1309 20.6101 50.1309C19.753 50.1309 19.2888 49.756 19.2888 49.0775C19.2888 48.3991 19.7709 48.0063 20.6279 47.9884C25.8593 47.9884 31.0728 47.9884 36.3041 47.9884C36.8219 47.9884 37.3397 48.0955 37.5183 48.6312C37.6254 48.9526 37.6075 49.4525 37.4111 49.6846C37.179 49.9524 36.6969 50.1131 36.3041 50.1309C33.6438 50.1488 31.0014 50.1309 28.3768 50.1309Z" fill="#26C7BC"/>
<path fill-rule="evenodd" clip-rule="evenodd" d="M19.7827 30.4298C20.2709 29.9417 21.0624 29.9417 21.5505 30.4298L26.3235 35.2028L36.7533 24.773C37.2415 24.2848 38.0329 24.2848 38.5211 24.773C39.0092 25.2611 39.0092 26.0526 38.5211 26.5408L26.3235 38.7383L19.7827 32.1976C19.2946 31.7094 19.2946 30.918 19.7827 30.4298Z" fill="#26C7BC"/>
</svg>
