<svg width="61" height="60" viewBox="0 0 61 60" fill="none" xmlns="http://www.w3.org/2000/svg">
<path fill-rule="evenodd" clip-rule="evenodd" d="M36.9481 28.7947H36.1463C36.1243 29.3853 36.0134 30.7479 35.7454 31.4732C35.879 31.3393 36.0126 31.2054 36.1463 31.2054H36.5472H57.928H58.5962V50.2232H56.5917V49.5536V35.625C56.5917 33.8839 55.7899 33.2143 54.1863 33.2143H36.0127H35.2109C35.0327 33.7581 34.5694 34.9749 34.1418 35.4911C34.2754 35.3572 34.5427 35.2232 34.81 35.2232H42.6942H53.9191H54.7209V54.2411H52.7164V53.5714V39.6428C52.7164 38.0357 51.9147 37.2321 50.3111 37.2321H33.6073H32.9392C32.3824 37.8182 31.1752 39.0672 30.801 39.375C31.0683 39.2411 31.3356 39.1072 31.6029 39.1072H43.3623H43.7632C44.565 42.9911 46.8367 45.2679 50.712 46.0715V51.1607C46.8367 51.9643 44.565 54.2411 43.7632 58.1251H35.8791C36.0127 57.9911 36.1129 57.8572 36.2131 57.7232C36.3134 57.5893 36.4136 57.4554 36.5472 57.3214C38.9526 54.5089 39.888 51.1608 39.6207 47.4108C39.4871 45.4018 38.8189 43.5268 37.8835 41.7857C37.4826 40.9822 36.9481 40.8482 36.4135 41.1161C35.7454 41.5179 35.7454 42.0536 36.1463 42.8572C38.0171 46.4732 38.1508 50.0893 36.5472 53.7053C35.6118 55.7143 34.2754 57.3214 32.1374 57.9911C30.1329 58.6607 28.2621 58.125 26.6585 56.6518C24.7877 54.9107 23.9859 52.6339 23.7187 50.2232C23.6302 49.5141 23.6589 48.8635 23.6883 48.194C23.7034 47.8521 23.7187 47.5051 23.7187 47.1429C23.7187 46.3393 23.4514 45.8036 22.7832 45.8036C22.2487 45.8036 21.8478 46.2053 21.7142 47.0089C21.1797 51.1607 22.3824 54.9107 25.3222 57.9911C25.3222 58.125 25.3222 58.125 25.4558 58.2589C22.7832 58.2589 20.2443 58.2589 17.7053 57.9911C16.9035 54.1071 14.6318 51.8303 10.7565 51.0268V42.1875C10.0097 41.8149 8.46053 41.0171 7.90777 40.6446C8.23812 40.8919 8.35119 41.1482 8.35119 41.5179V57.3214C8.35119 58.6607 8.6185 59.4643 9.82117 60H50.8456C52.3097 59.3711 52.3006 58.168 52.2916 56.9684C52.289 56.6353 52.2865 56.3024 52.3156 55.9821H54.1863C55.5226 55.9821 56.3245 55.1786 56.3245 53.8393V51.9643H58.0616C59.5316 51.9643 60.3334 51.1607 60.3334 49.6875V31.0715V30.4018C60.0661 29.3304 59.2643 28.7947 58.0616 28.7947H36.9481ZM50.5784 58.2589H45.7676C46.0349 55.9822 48.173 53.8393 50.5784 53.4375V58.2589ZM15.4336 58.2589H10.6229V53.4375C12.761 53.5715 15.1663 55.9822 15.4336 58.2589ZM50.5784 39.2411V44.0625C48.4403 44.0625 46.1685 41.6518 45.7676 39.2411H50.5784Z" fill="white"/>
<path fill-rule="evenodd" clip-rule="evenodd" d="M1.2688 21.4286C0.867911 22.5 0.867911 23.7054 0.600651 24.7768C0.600651 25.7143 0.600634 26.6518 0.333374 27.3215C0.600634 28.3929 0.734265 29.5982 1.00153 30.8036C2.07057 34.8214 4.47596 38.1696 7.81671 40.5804C7.84875 40.6018 7.87908 40.6232 7.90777 40.6446C8.46053 41.0171 10.0097 41.8149 10.7565 42.1875C11.0238 42.1875 11.1574 42.3214 11.2911 42.3214C18.3735 45.4018 24.9213 44.3304 30.801 39.375C31.1752 39.0672 32.3824 37.8182 32.9392 37.2321C33.3401 36.5625 33.6073 36.0268 34.1418 35.4911C34.5694 34.9749 35.0327 33.7581 35.2109 33.2143C35.4782 32.5446 35.6118 32.0089 35.7454 31.4732C36.0134 30.7479 36.1243 29.3853 36.1463 28.7947C36.6808 25.9822 36.5472 23.4375 35.7454 20.7589C34.9436 18.0804 33.6073 15.8036 31.8702 13.7946C32.4047 13.125 32.9391 12.7232 33.4737 12.0536C33.6073 12.3214 33.8746 12.4554 34.0082 12.7232L34.5428 13.259C34.9436 13.7947 35.6118 13.7946 36.0127 13.3929C36.4135 12.9911 36.4136 12.4554 35.8791 11.9197L32.1374 8.16961C31.6028 7.6339 31.0683 7.63393 30.6674 8.03572C30.2666 8.57143 30.2665 9.10716 30.801 9.64288C31.2019 9.91073 31.6029 10.3125 32.0037 10.5804L30.4002 12.1875C28.9302 11.3839 27.5939 10.3125 26.124 9.64288C24.6541 8.97323 23.0505 8.43754 21.4469 7.90182V5.89289H21.9815C23.4514 5.62503 24.6541 4.28568 24.5205 2.81247C24.5205 1.33925 23.3178 0 21.7142 0H15.4336C14.2309 0.133929 13.1619 0.9375 12.761 2.00893C12.2264 3.21429 12.4937 4.41968 13.4291 5.22325C14.0973 5.75896 14.7654 5.89288 15.4336 6.29466L15.5673 6.16068V7.23218V8.30359C15.4336 8.43752 15.3 8.43749 15.1664 8.43749C8.08397 10.0446 3.40689 14.4643 1.2688 21.4286ZM2.6051 26.25C2.6051 17.4107 9.82114 10.1785 18.6407 10.1785C27.4603 10.1785 34.5427 17.2768 34.6764 26.25C34.6764 34.9553 27.4603 42.1875 18.6407 42.1875C9.82114 42.1875 2.6051 35.0893 2.6051 26.25ZM21.3133 4.15175H18.5071H15.7008C14.8991 4.15175 14.4982 3.75003 14.4982 3.21432C14.4982 2.54468 14.8991 2.14283 15.5673 2.14283H21.3133C22.1151 2.14283 22.516 2.54463 22.516 3.08034C22.516 3.74998 21.9815 4.15175 21.3133 4.15175ZM17.7053 6.16068H19.5762C19.5762 6.42854 19.5761 6.56247 19.7098 6.83033V8.16961H17.7053V6.16068Z" fill="#26C7BC"/>
<path d="M29.5985 53.0357C29.5985 51.9643 29.5985 50.8928 29.5985 49.9553C29.5985 49.8214 29.3313 49.5536 29.1976 49.5536C28.2622 49.2857 27.3268 48.8839 26.6586 48.2143C25.3223 46.875 25.3223 45 26.6586 43.6607C27.3268 42.991 28.2622 42.5893 29.1976 42.3214C29.4649 42.3214 29.7321 42.1875 29.7321 41.7857C29.8657 41.3839 30.133 41.1161 30.6675 41.1161C31.0684 41.1161 31.4693 41.3839 31.603 41.7857C31.7366 42.1875 31.8702 42.1875 32.1374 42.3214C32.9392 42.7232 33.741 42.9911 34.4092 43.5268C35.0773 44.0625 35.4782 44.8661 35.6119 45.8036C35.6119 46.4732 35.3446 46.875 34.6764 47.0089C34.1419 47.0089 33.7411 46.7411 33.6074 46.0715C33.4738 45.134 32.672 44.5982 31.603 44.4643C31.603 45.5357 31.603 46.6071 31.603 47.6785C31.603 47.8125 31.8702 47.9464 32.0038 47.9464C32.8056 48.3482 33.6074 48.616 34.2756 49.0178C35.8791 50.3571 36.0128 52.5 34.2756 53.8393C33.6074 54.375 32.672 54.6428 31.8702 55.0446C31.7366 55.1785 31.4693 55.3125 31.3357 55.4465C31.0684 55.8483 30.8012 56.1161 30.4003 56.1161C29.9994 56.1161 29.5985 55.8483 29.4648 55.4465C29.3312 55.0447 29.1976 55.0446 28.9304 54.9107C27.995 54.6429 27.0595 54.2411 26.3914 53.5714C25.8568 53.0357 25.5896 52.3661 25.4559 51.5625C25.4559 51.0268 25.7232 50.4911 26.3914 50.4911C26.9259 50.4911 27.3268 50.759 27.4604 51.4286C27.7276 52.3661 28.3958 52.9018 29.5985 53.0357ZM29.5985 44.4643C28.5295 44.5982 27.7277 45.2678 27.5941 45.9375C27.5941 46.6071 28.5295 47.4107 29.5985 47.5446C29.5985 46.4732 29.5985 45.5357 29.5985 44.4643ZM31.603 49.9553C31.603 51.0268 31.603 52.0982 31.603 53.1697C32.672 52.9018 33.4738 52.2321 33.6074 51.5625C33.6074 50.8929 32.8056 50.0893 31.603 49.9553Z" fill="white"/>
<path d="M18.6407 40.1786C10.8901 40.1786 4.6095 33.884 4.6095 26.1161C4.6095 18.3482 10.8901 12.0536 18.6407 12.0536C26.3912 12.0536 32.6718 18.3482 32.6718 26.1161C32.5382 34.0179 26.2576 40.1786 18.6407 40.1786ZM18.6407 14.1964C11.9592 14.1964 6.61395 19.6875 6.61395 26.25C6.61395 32.9464 12.0928 38.3036 18.6407 38.3036C25.3222 38.3036 30.6674 32.9464 30.6674 26.25C30.6674 19.5536 25.1886 14.0625 18.6407 14.1964Z" fill="#26C7BC"/>
<path d="M18.3735 29.1964C17.3044 29.1964 16.369 28.5267 15.9681 27.4553C15.4336 26.25 15.7009 25.1785 16.5027 24.241C17.3045 23.3035 18.3735 23.0357 19.5762 23.3036C19.9771 23.4375 20.1107 23.3035 20.3779 23.0357C21.447 21.8303 22.6497 20.7589 23.8524 19.5535C24.3869 19.0178 24.9213 18.8839 25.4559 19.4196C25.8567 19.8214 25.8568 20.491 25.3223 21.0268C24.1196 22.2321 23.0506 23.3035 21.8479 24.5089C21.5806 24.7767 21.5806 25.0446 21.5806 25.3125C22.1151 27.3214 20.5116 29.1964 18.3735 29.1964ZM18.6407 25.1785C18.1062 25.1785 17.5717 25.5803 17.5717 26.2499C17.5717 26.7856 17.9726 27.1874 18.5072 27.1874C19.0417 27.1874 19.5762 26.7856 19.5762 26.2499C19.5762 25.7142 19.1753 25.1785 18.6407 25.1785Z" fill="#26C7BC"/>
</svg>
