<svg width="404" height="231" viewBox="0 0 404 231" fill="none" xmlns="http://www.w3.org/2000/svg">
<path d="M351.053 100.145C354.686 87.9776 347.42 78.2438 334.1 84.3274L324.413 87.9776L284.453 103.795L204.532 135.43L123.401 168.282C100.393 178.016 123.401 181.666 133.088 184.099L174.259 196.267H171.837C203.321 175.582 261.445 139.08 292.929 118.396C297.773 115.962 303.827 109.879 311.093 112.312C313.515 113.529 315.594 117.179 314.383 119.613C313.172 122.046 312.304 123.263 311.093 124.48L208.165 219.384L210.587 215.734L206.954 272.921L200.899 265.62C204.532 265.62 204.532 265.62 206.954 261.97C213.008 257.103 227.539 241.286 233.594 235.202C236.016 232.768 239.649 232.768 242.07 235.202C260.234 248.586 280.82 264.403 296.562 276.571C312.304 287.521 311.093 258.32 315.937 248.586C328.046 201.134 341.366 147.597 351.053 100.145ZM352.264 100.145C342.577 148.814 332.889 202.35 324.413 251.019C320.78 269.27 319.569 300.905 292.929 286.305C273.554 272.921 255.391 259.537 236.016 246.153H244.492L226.329 264.403C221.485 268.054 216.641 275.354 210.587 277.787C204.532 280.221 194.845 281.438 196.056 272.921L199.688 215.734C199.688 214.518 200.899 212.084 202.11 212.084L306.249 119.613C305.038 120.829 306.249 123.263 307.46 123.263C308.671 123.263 307.46 123.263 306.249 123.263C305.038 124.48 301.406 126.913 297.773 128.13C286.874 135.43 256.602 153.681 245.703 160.981L175.47 204.784C174.259 204.784 173.048 206 173.048 204.784L131.877 190.183C125.822 187.749 116.135 187.749 110.08 181.666C101.604 173.149 113.713 163.415 120.979 162.198C160.939 147.597 243.281 117.179 283.242 101.362L323.703 85.8992L333.355 82.5708C347.589 77.371 355.897 86.7609 352.264 100.145Z" fill="url(#paint0_linear_38_577)"/>
<circle opacity="0.1" cx="272.845" cy="240.91" r="271.5" transform="rotate(-90 272.845 240.91)" stroke="white"/>
<circle opacity="0.5" cx="272.845" cy="240.91" r="217.1" transform="rotate(-90 272.845 240.91)" stroke="white"/>
<circle opacity="0.25" cx="272.845" cy="240.91" r="244.3" transform="rotate(-90 272.845 240.91)" stroke="white"/>
<path d="M124.163 45.9364C123.955 46.1176 123.933 46.4334 124.114 46.6418C124.295 46.8503 124.611 46.8724 124.819 46.6912L124.163 45.9364ZM124.819 46.6912C127.815 44.0883 133.997 39.8913 140.506 35.7954C147.007 31.7042 153.794 27.7394 157.978 25.6013L157.523 24.7108C153.301 26.8685 146.486 30.851 139.973 34.949C133.469 39.0423 127.224 43.2764 124.163 45.9364L124.819 46.6912Z" fill="url(#paint1_linear_38_577)"/>
<defs>
<linearGradient id="paint0_linear_38_577" x1="348.001" y1="76.5796" x2="245.817" y2="289.933" gradientUnits="userSpaceOnUse">
<stop stop-color="white"/>
<stop offset="1" stop-color="white" stop-opacity="0"/>
</linearGradient>
<linearGradient id="paint1_linear_38_577" x1="124.491" y1="46.3138" x2="153.797" y2="27.5161" gradientUnits="userSpaceOnUse">
<stop stop-color="#2DC9BE" stop-opacity="0"/>
<stop offset="1" stop-color="white"/>
</linearGradient>
</defs>
</svg>
