<svg width="181" height="156" viewBox="0 0 181 156" fill="none" xmlns="http://www.w3.org/2000/svg">
<path d="M217.395 81.3965C219.648 73.8499 215.142 67.8127 206.88 71.586L200.872 73.8499L176.087 83.6605L126.518 103.281L76.1974 123.657C61.9274 129.694 76.1974 131.958 82.2058 133.468L107.742 141.014H106.239C125.767 128.185 161.817 105.545 181.344 92.7163C184.349 91.207 188.104 87.4337 192.61 88.943C194.112 89.6977 195.402 91.9617 194.651 93.471C193.9 94.9803 193.361 95.7349 192.61 96.4896L128.771 155.353L130.273 153.089L128.02 188.557L124.265 184.03C126.518 184.03 126.518 184.03 128.02 181.766C131.775 178.747 140.788 168.936 144.543 165.163C146.045 163.654 148.298 163.654 149.8 165.163C161.066 173.464 173.834 183.275 183.598 190.821C193.361 197.613 192.61 179.502 195.614 173.464C203.125 144.033 211.386 110.828 217.395 81.3965ZM218.146 81.3965C212.137 111.583 206.129 144.787 200.872 174.974C198.619 186.294 197.868 205.915 181.344 196.859C169.328 188.557 158.062 180.256 146.045 171.955H151.302L140.037 183.275C137.032 185.539 134.028 190.067 130.273 191.576C126.518 193.085 120.509 193.84 121.26 188.557L123.514 153.089C123.514 152.334 124.265 150.825 125.016 150.825L189.606 93.471C188.855 94.2256 189.606 95.7349 190.357 95.7349C191.108 95.7349 190.357 95.7349 189.606 95.7349C188.855 96.4896 186.602 97.9989 184.349 98.7536C177.589 103.281 158.813 114.601 152.053 119.129L108.493 146.297C107.741 146.297 106.99 147.051 106.99 146.297L81.4547 137.241C77.6995 135.732 71.6911 135.732 67.9358 131.958C62.6785 126.676 70.189 120.639 74.6953 119.884C99.4799 110.828 150.551 91.9617 175.336 82.1511L200.431 72.5608L206.418 70.4964C215.246 67.2714 220.399 73.0953 218.146 81.3965Z" fill="url(#paint0_linear_38_830)"/>
<circle opacity="0.1" cx="168.888" cy="168.704" r="168.203" transform="rotate(-90 168.888 168.704)" stroke="white"/>
<circle opacity="0.5" cx="168.888" cy="168.704" r="134.462" transform="rotate(-90 168.888 168.704)" stroke="white"/>
<circle opacity="0.25" cx="168.887" cy="168.704" r="151.333" transform="rotate(-90 168.887 168.704)" stroke="white"/>
<path d="M76.5463 47.6314C76.3379 47.8125 76.3157 48.1283 76.4969 48.3368C76.678 48.5452 76.9938 48.5673 77.2022 48.3862L76.5463 47.6314ZM77.2022 48.3862C79.0475 46.7826 82.8701 44.1866 86.908 41.6456C90.9384 39.1094 95.1422 36.6537 97.7301 35.3313L97.2751 34.4408C94.6489 35.7828 90.4166 38.2563 86.3754 40.7993C82.3418 43.3375 78.4573 45.9707 76.5463 47.6314L77.2022 48.3862Z" fill="url(#paint1_linear_38_830)"/>
<defs>
<linearGradient id="paint0_linear_38_830" x1="215.502" y1="66.7805" x2="152.124" y2="199.109" gradientUnits="userSpaceOnUse">
<stop stop-color="white"/>
<stop offset="1" stop-color="white" stop-opacity="0"/>
</linearGradient>
<linearGradient id="paint1_linear_38_830" x1="76.8743" y1="48.0088" x2="95.0502" y2="36.3498" gradientUnits="userSpaceOnUse">
<stop stop-color="#2DC9BE" stop-opacity="0"/>
<stop offset="1" stop-color="white"/>
</linearGradient>
</defs>
</svg>
