<svg width="20" height="21" viewBox="0 0 20 21" fill="none" xmlns="http://www.w3.org/2000/svg">
<mask id="mask0_38_909" style="mask-type:alpha" maskUnits="userSpaceOnUse" x="0" y="0" width="20" height="21">
<rect y="0.5" width="20" height="20" rx="10" fill="#D9D9D9"/>
</mask>
<g mask="url(#mask0_38_909)">
<mask id="mask1_38_909" style="mask-type:alpha" maskUnits="userSpaceOnUse" x="0" y="0" width="20" height="21">
<circle cx="10" cy="10.5" r="10" fill="#D9D9D9"/>
</mask>
<g mask="url(#mask1_38_909)">
<path d="M24.9994 0.500122H-5V20.4999H24.9994V0.500122Z" fill="#F0F0F0"/>
<path d="M11.8747 0.5H8.12474V8.6248H-5V12.3747H8.12474V20.4995H11.8747V12.3747H24.9994V8.6248H11.8747V0.5Z" fill="#D80027"/>
<path d="M18.0728 13.9774L24.9993 17.8255V13.9774H18.0728Z" fill="#0052B4"/>
<path d="M13.2598 13.9775L24.9987 20.4991V18.655L16.5793 13.9775H13.2598Z" fill="#0052B4"/>
<path d="M21.8721 20.4987L13.26 15.7137V20.4987H21.8721Z" fill="#0052B4"/>
<path d="M13.2598 13.9775L24.9987 20.4991V18.655L16.5793 13.9775H13.2598Z" fill="#F0F0F0"/>
<path d="M13.2598 13.9775L24.9987 20.4991V18.655L16.5793 13.9775H13.2598Z" fill="#D80027"/>
<path d="M0.293314 13.9775L-5 16.9183V13.9775H0.293314Z" fill="#0052B4"/>
<path d="M6.73947 14.8065V20.4988H-3.50586L6.73947 14.8065Z" fill="#0052B4"/>
<path d="M3.41934 13.9775L-5 18.655V20.4991L6.73891 13.9775H3.41934Z" fill="#D80027"/>
<path d="M1.92652 7.02196L-5 3.17383V7.02196H1.92652Z" fill="#0052B4"/>
<path d="M6.73891 7.02159L-5 0.5V2.34414L3.41934 7.02159H6.73891Z" fill="#0052B4"/>
<path d="M-1.87305 0.5L6.73901 5.28491V0.5H-1.87305Z" fill="#0052B4"/>
<path d="M6.73891 7.02159L-5 0.5V2.34414L3.41934 7.02159H6.73891Z" fill="#F0F0F0"/>
<path d="M6.73891 7.02159L-5 0.5V2.34414L3.41934 7.02159H6.73891Z" fill="#D80027"/>
<path d="M19.7053 7.02182L24.9986 4.08105V7.02182H19.7053Z" fill="#0052B4"/>
<path d="M13.2598 6.19233V0.5H23.5051L13.2598 6.19233Z" fill="#0052B4"/>
<path d="M16.5793 7.02159L24.9987 2.34414V0.5L13.2598 7.02159H16.5793Z" fill="#D80027"/>
</g>
</g>
</svg>
