<svg width="135" height="133" viewBox="0 0 135 133" fill="none" xmlns="http://www.w3.org/2000/svg">
<path d="M132 133L134.83 127.968L129.057 128.033L132 133ZM0 1.5C1.01858 1.5 2.03445 1.51158 3.04747 1.53461L3.07021 0.534873C2.0496 0.511666 1.02616 0.5 0 0.5V1.5ZM9.11541 1.81098C11.1446 1.94991 13.1611 2.13487 15.1639 2.36482L15.278 1.37134C13.26 1.13965 11.2282 0.953291 9.18372 0.813318L9.11541 1.81098ZM21.1804 3.19672C23.1865 3.52155 25.1774 3.89176 27.1519 4.30626L27.3574 3.32759C25.3677 2.90992 23.3616 2.53688 21.3402 2.20958L21.1804 3.19672ZM33.0658 5.69195C35.0321 6.20121 36.9806 6.75482 38.91 7.35165L39.2055 6.39631C37.2613 5.7949 35.2979 5.23705 33.3165 4.72389L33.0658 5.69195ZM44.6715 9.28191C46.5807 9.97142 48.4694 10.7039 50.3365 11.4781L50.7195 10.5544C48.8382 9.77422 46.935 9.03616 45.0111 8.34137L44.6715 9.28191ZM55.893 13.9352C57.7288 14.7984 59.5413 15.7029 61.3295 16.6474L61.7965 15.7632C59.9947 14.8115 58.1684 13.9001 56.3186 13.0302L55.893 13.9352ZM66.6344 19.6085C68.3814 20.6373 70.1026 21.7055 71.7968 22.8116L72.3435 21.9742C70.6365 20.8597 68.9022 19.7835 67.1419 18.7468L66.6344 19.6085ZM76.8059 26.2494C78.4499 27.4344 80.0655 28.6564 81.6514 29.9142L82.2728 29.1307C80.6749 27.8634 79.0471 26.6321 77.3906 25.4381L76.8059 26.2494ZM86.3233 33.7979C87.8509 35.1284 89.3475 36.4935 90.8119 37.8921L91.5026 37.169C90.0272 35.7598 88.5192 34.3843 86.98 33.0438L86.3233 33.7979ZM95.1078 42.1881C96.5065 43.6524 97.8716 45.1491 99.2021 46.6767L99.9562 46.0199C98.6157 44.4808 97.2402 42.9728 95.831 41.4974L95.1078 42.1881ZM103.086 51.3486C104.344 52.9345 105.566 54.5501 106.751 56.1941L107.562 55.6094C106.368 53.9529 105.137 52.3251 103.869 50.7272L103.086 51.3486ZM110.188 61.2032C111.295 62.8974 112.363 64.6186 113.392 66.3656L114.253 65.8581C113.216 64.0978 112.14 62.3635 111.026 60.6565L110.188 61.2032ZM116.353 71.6705C117.297 73.4587 118.202 75.2712 119.065 77.107L119.97 76.6814C119.1 74.8316 118.189 73.0053 117.237 71.2035L116.353 71.6705ZM121.522 82.6635C122.296 84.5306 123.029 86.4193 123.718 88.3286L124.659 87.9889C123.964 86.065 123.226 84.1618 122.446 82.2805L121.522 82.6635ZM125.648 94.09C126.245 96.0195 126.799 97.9679 127.308 99.9343L128.276 99.6836C127.763 97.7022 127.205 95.7388 126.604 93.7945L125.648 94.09ZM128.694 105.848C129.108 107.823 129.478 109.814 129.803 111.82L130.79 111.66C130.463 109.638 130.09 107.632 129.672 105.643L128.694 105.848ZM130.635 117.836C130.865 119.839 131.05 121.855 131.189 123.885L132.187 123.816C132.047 121.772 131.86 119.74 131.629 117.722L130.635 117.836Z" fill="#26C7BC"/>
</svg>
