<svg width="43" height="50" viewBox="0 0 43 50" fill="none" xmlns="http://www.w3.org/2000/svg">
<g clip-path="url(#clip0_106_16)">
<path d="M8.41073 49.9266C8.39851 49.9022 8.39851 49.8533 8.37406 49.841C7.94619 49.5232 7.70169 49.1198 7.92174 48.5819C8.15401 48.044 8.61856 47.9706 9.14423 47.9706C19.0953 47.9706 29.0464 47.9706 38.9975 47.9706C40.1345 47.9706 40.4156 47.6894 40.4156 46.5647C40.4156 34.1075 40.4156 21.6503 40.4156 9.19311C40.4156 8.97306 40.4156 8.74078 40.4645 8.52073C40.5745 8.06841 40.9902 7.76279 41.4303 7.77501C41.8704 7.79946 42.2616 8.12953 42.3349 8.59408C42.3716 8.8019 42.3594 9.00973 42.3594 9.22978C42.3594 21.577 42.3594 33.9119 42.3594 46.2591C42.3594 48.4596 41.9193 49.132 39.9144 49.9388C29.4254 49.9266 18.9242 49.9266 8.41073 49.9266Z" fill="white"/>
<path d="M34.5599 21.0391C34.5599 26.956 34.5599 32.8729 34.5599 38.802C34.5599 40.9413 33.3863 42.1271 31.2469 42.1271C21.9315 42.1271 12.6161 42.1271 3.28851 42.1271C1.21027 42.1271 0.0122248 40.9413 0.0122248 38.8753C0.0122248 33.0685 0.0122248 27.2616 0.0122248 21.4548C0.0122248 21.2225 -1.89452e-07 21.0024 0.0733494 20.7824C0.232274 20.3423 0.550122 20.1223 1.00244 20.1345C1.43032 20.1467 1.73594 20.3667 1.88264 20.7824C1.96821 21.0147 1.95599 21.2592 1.95599 21.5037C1.95599 27.2738 1.95599 33.044 1.95599 38.8264C1.95599 39.89 2.26161 40.1956 3.32518 40.1956C12.6284 40.1956 21.9315 40.1956 31.2347 40.1956C32.2861 40.1956 32.6039 39.8777 32.6039 38.8264C32.6039 26.9927 32.6039 15.1467 32.6039 3.31296C32.6039 2.26161 32.2861 1.94376 31.2347 1.94376C21.9315 1.94376 12.6284 1.94376 3.32518 1.94376C2.26161 1.94376 1.95599 2.24939 1.95599 3.31296C1.95599 6.30807 1.95599 9.30318 1.95599 12.2861C1.95599 12.3839 1.95599 12.4817 1.95599 12.5795C1.95599 13.3741 1.58924 13.8386 0.977995 13.8386C0.366748 13.8386 0 13.3741 0 12.5795C0 9.43765 0 6.30807 0 3.16626C0 1.22249 1.22249 0 3.16626 0C12.5672 0 21.9682 0 31.357 0C33.3252 0 34.5354 1.22249 34.5354 3.21516C34.5599 9.13203 34.5599 15.0856 34.5599 21.0391Z" fill="white"/>
<path d="M38.4719 24.1198C38.4719 30.3179 38.4719 36.5159 38.4719 42.714C38.4719 44.8533 37.2983 46.0391 35.1589 46.0391C26.5037 46.0391 17.8606 46.0391 9.20537 46.0391C8.31295 46.0391 7.84841 45.7091 7.83618 45.0734C7.83618 44.4377 8.31295 44.0832 9.19315 44.0832C17.824 44.0832 26.467 44.0832 35.0978 44.0832C36.2347 44.0832 36.5159 43.802 36.5159 42.6773C36.5159 30.2201 36.5159 17.7629 36.5159 5.30565C36.5159 5.0856 36.5159 4.8411 36.5648 4.63328C36.6626 4.19318 37.0538 3.89978 37.4817 3.89978C37.9218 3.89978 38.3252 4.21763 38.423 4.66995C38.4597 4.87778 38.4597 5.0856 38.4597 5.30565C38.4719 11.5648 38.4719 17.8484 38.4719 24.1198Z" fill="#26C7BC"/>
<path d="M22.9707 26.2225C21.1858 26.2225 19.401 26.2225 17.6039 26.2225C17.3717 26.2225 17.1516 26.2347 16.9316 26.1369C16.5281 25.9657 16.3203 25.6601 16.3203 25.22C16.3325 24.8166 16.5404 24.511 16.9193 24.3521C17.1149 24.2665 17.335 24.2665 17.5428 24.2665C21.1614 24.2665 24.7922 24.2665 28.4108 24.2665C29.1565 24.2665 29.5844 24.5966 29.6088 25.1956C29.6455 25.8068 29.1932 26.2225 28.4597 26.2225C26.6382 26.2225 24.8044 26.2225 22.9707 26.2225Z" fill="#26C7BC"/>
<path d="M22.9828 33.6308C21.2102 33.6308 19.4376 33.6308 17.665 33.6308C17.5061 33.6308 17.3349 33.6308 17.176 33.6063C16.6626 33.533 16.308 33.1173 16.3203 32.6406C16.3203 32.1638 16.687 31.7604 17.2005 31.687C17.2982 31.6748 17.396 31.6748 17.4938 31.6748C21.1491 31.6748 24.8044 31.6748 28.4596 31.6748C29.0953 31.6748 29.4743 31.9315 29.5965 32.3961C29.7677 33.0929 29.3154 33.6186 28.4963 33.6308C26.6503 33.643 24.8166 33.6308 22.9828 33.6308Z" fill="#26C7BC"/>
<path d="M12.9584 23.6063C12.9462 23.9486 12.8117 24.1931 12.5916 24.4132C11.5525 25.4523 10.5256 26.4914 9.48651 27.5183C8.97306 28.0195 8.45962 28.0195 7.94617 27.5305C7.35937 26.9682 6.7848 26.3936 6.22245 25.8068C5.7579 25.33 5.74568 24.731 6.1491 24.3276C6.55253 23.9486 7.11487 23.9731 7.59165 24.4132C7.88504 24.6943 8.17844 24.9755 8.44739 25.2811C8.65522 25.5134 8.77746 25.489 8.98529 25.2811C9.71878 24.5232 10.4767 23.7775 11.2225 23.0317C11.5403 22.7139 11.907 22.5916 12.3349 22.7383C12.6772 22.8606 12.8973 23.1173 12.9462 23.4963C12.9462 23.533 12.9584 23.5819 12.9584 23.6063Z" fill="#26C7BC"/>
<path d="M8.69193 35.3179C8.38631 35.3301 8.14181 35.1712 7.92176 34.9511C7.35941 34.3888 6.78484 33.8264 6.23472 33.2641C5.77017 32.7751 5.7335 32.1883 6.1247 31.7849C6.54034 31.3692 7.09047 31.3937 7.59169 31.8827C7.88509 32.1638 8.17849 32.445 8.44743 32.7506C8.63081 32.9585 8.75306 32.9462 8.94866 32.7506C9.69438 31.9805 10.4645 31.2225 11.2225 30.4768C11.5159 30.1834 11.8704 30.0367 12.2861 30.1834C12.6528 30.3179 12.8729 30.5746 12.9218 30.9658C12.9707 31.3203 12.824 31.6015 12.5917 31.846C11.5526 32.8973 10.5012 33.9365 9.44988 34.9878C9.2665 35.1956 9.00978 35.3301 8.69193 35.3179Z" fill="#26C7BC"/>
<path d="M24.7188 9.14422C23.6675 9.14422 22.6039 9.14422 21.5526 9.14422C20.7946 9.14422 20.3423 8.77748 20.3301 8.17845C20.3178 7.57943 20.7824 7.18823 21.5281 7.18823C23.643 7.18823 25.7579 7.18823 27.8729 7.18823C28.6308 7.18823 29.0954 7.55498 29.0954 8.15401C29.1076 8.76525 28.6308 9.14422 27.8484 9.14422C26.7971 9.14422 25.7579 9.14422 24.7188 9.14422Z" fill="#26C7BC"/>
<path d="M24.7066 11.8704C25.8069 11.8704 26.9194 11.8582 28.0196 11.8704C28.8142 11.8826 29.291 12.5672 28.9854 13.2274C28.802 13.6186 28.4719 13.8142 28.0563 13.8142C25.8069 13.8142 23.5697 13.8264 21.3203 13.8142C20.7213 13.8142 20.3057 13.3741 20.3057 12.8362C20.3057 12.2983 20.7213 11.8826 21.3326 11.8704C22.4695 11.8582 23.5942 11.8704 24.7066 11.8704Z" fill="#26C7BC"/>
<path d="M24.6822 18.5085C23.5819 18.5085 22.4695 18.5085 21.3692 18.5085C20.9291 18.5085 20.5868 18.3129 20.4034 17.8973C20.2445 17.5305 20.3179 17.1882 20.5746 16.8948C20.7824 16.6626 21.0514 16.5648 21.357 16.5648C23.5819 16.5648 25.8069 16.5525 28.044 16.5648C28.6675 16.5648 29.1076 17.0049 29.0954 17.555C29.0832 18.1051 28.6431 18.5085 28.0074 18.5085C26.8949 18.5207 25.7946 18.5085 24.6822 18.5085Z" fill="#26C7BC"/>
<path d="M1.96818 17.2249C1.96818 17.7261 1.49141 18.1907 0.990185 18.1907C0.476738 18.1907 0.0244141 17.7261 0.0244141 17.2127C0.0244141 16.687 0.476737 16.2592 1.00241 16.2592C1.52808 16.2592 1.96818 16.7115 1.96818 17.2249Z" fill="white"/>
<path d="M5.86794 45.0611C5.86794 45.5623 5.4034 46.0269 4.90217 46.0269C4.38873 46.0269 3.9364 45.5623 3.9364 45.0611C3.9364 44.5476 4.40095 44.0953 4.90217 44.0953C5.41562 44.0831 5.86794 44.5476 5.86794 45.0611Z" fill="white"/>
<path fill-rule="evenodd" clip-rule="evenodd" d="M16.8093 17.2371V12.8484C16.8093 11.3814 16.8093 9.92662 16.8215 8.45963C16.8215 7.53053 16.4792 7.18823 15.5501 7.18823H6.77261C5.84352 7.18823 5.50122 7.53053 5.50122 8.45963V17.2371C5.50122 18.1662 5.83129 18.5085 6.76039 18.5085H15.5379C16.467 18.5085 16.8093 18.1662 16.8093 17.2371ZM10.3232 16.551C10.599 16.5518 10.8745 16.5525 11.1491 16.5525C11.4211 16.5525 11.6931 16.5518 11.9651 16.551C12.7811 16.5487 13.5972 16.5464 14.4132 16.5648C14.731 16.577 14.8533 16.5036 14.8533 16.1491C14.8411 13.9609 14.8411 11.7604 14.8533 9.5721C14.8655 9.2298 14.7677 9.14422 14.4254 9.14422C12.2372 9.15645 10.0367 9.15645 7.84841 9.14422C7.55501 9.14422 7.43276 9.19312 7.43276 9.53542C7.44499 11.7481 7.44499 13.9486 7.43276 16.1613C7.43276 16.4792 7.51834 16.5648 7.83618 16.5648C8.66176 16.5464 9.49422 16.5487 10.3232 16.551Z" fill="#26C7BC"/>
</g>
<defs>
<clipPath id="clip0_106_16">
<rect width="42.4205" height="50" fill="white"/>
</clipPath>
</defs>
</svg>
