<svg width="42" height="47" viewBox="0 0 42 47" fill="none" xmlns="http://www.w3.org/2000/svg">
<g clip-path="url(#clip0_106_50)">
<path fill-rule="evenodd" clip-rule="evenodd" d="M21.2151 0.289886C21.1226 0.221885 21.0298 0.15372 20.9414 0.0811358C15.4706 0.0811358 10.0088 0.0811361 4.51095 0.0631104C4.2674 0.163397 4.01565 0.251842 3.7638 0.340318C3.22348 0.530142 2.68275 0.720111 2.22168 1.02749C0.725544 2.02792 0.0225401 3.52406 0.0135272 5.32663C0.00751962 7.35119 0.00952148 9.37175 0.0115234 11.3936C0.0125251 12.4051 0.0135272 13.4169 0.0135272 14.4296C0.0135272 16.6618 0.0125258 18.894 0.0115243 21.1262C0.00952148 25.5906 0.00751862 30.055 0.0135272 34.5193C0.0225401 37.079 1.62683 39.1159 4.07833 39.6567C4.547 39.7648 5.0337 39.7919 5.51138 39.7919C9.33284 39.8009 13.1453 39.8009 16.9577 39.7919C17.2912 39.7919 17.4895 39.882 17.6878 40.1704L16.453 37.8361C16.4206 37.8393 16.3894 37.8425 16.3592 37.8457C16.2212 37.86 16.1043 37.8721 15.9934 37.8721C14.8217 37.8721 13.65 37.8731 12.4783 37.8741C10.135 37.8761 7.79164 37.8781 5.44829 37.8721C3.68177 37.8631 2.46503 36.9889 2.05945 35.4206C1.96932 35.0601 1.94228 34.6726 1.94228 34.303V5.59702C1.94228 3.78543 2.80752 2.53264 4.39378 2.10903C4.70923 2.02792 5.05172 1.99187 5.37619 1.99187H19.3461C19.4126 1.99187 19.4791 1.99767 19.5555 2.00434C19.6137 2.00942 19.6777 2.01501 19.7517 2.0189V2.52363C19.7517 3.11814 19.7507 3.71366 19.7497 4.30951C19.7477 5.50221 19.7457 6.69625 19.7517 7.88629C19.7607 10.0223 20.9414 11.5996 22.9513 12.1404C23.3929 12.2575 23.8706 12.2756 24.3303 12.2846C25.5 12.2981 26.6748 12.2964 27.847 12.2947C28.2374 12.2941 28.6275 12.2936 29.017 12.2936H29.5217V19.7202L31.4775 19.9996V19.5399C31.4775 16.9082 31.4775 14.2854 31.4865 11.6537C31.4865 11.167 31.3333 10.7884 30.9998 10.4459C29.4265 8.79972 27.8579 7.15349 26.2903 5.50843C24.7598 3.90215 23.2302 2.29698 21.6985 0.694012C21.5579 0.541729 21.3869 0.41609 21.2151 0.289886ZM15.8852 29.8957L16.7054 27.5974C16.5612 27.8768 16.417 27.985 16.1015 27.985C14.128 27.9715 12.1596 27.9732 10.1887 27.9749C9.53125 27.9754 8.87353 27.976 8.21524 27.976C8.01696 27.976 7.81868 27.985 7.62941 28.012C7.17876 28.0841 6.87232 28.4266 6.84529 28.8683C6.81825 29.3189 7.07061 29.7065 7.50323 29.8236C7.70151 29.8777 7.91782 29.8957 8.12511 29.8957H15.3354H15.8852ZM18.2105 25.0017L19.5805 23.055C15.777 23.073 11.9826 23.073 8.17919 23.073C7.95387 23.073 7.72855 23.091 7.51224 23.1451C7.07962 23.2623 6.82726 23.6498 6.8543 24.1005C6.88134 24.5241 7.16975 24.8756 7.58434 24.9567C7.80966 24.9927 8.03499 25.0017 8.26031 25.0017H17.5886H18.2105ZM21.6715 3.91161V3.45195C22.2754 4.08785 22.8727 4.71706 23.4666 5.34268C25.0528 7.01366 26.6147 8.65903 28.2148 10.3378C28.1437 10.3405 28.081 10.3433 28.024 10.3457C27.893 10.3514 27.7925 10.3558 27.6921 10.3558C27.2902 10.3558 26.8872 10.3578 26.4837 10.3598C25.6745 10.3638 24.8627 10.3678 24.0509 10.3558C22.6989 10.3378 21.7075 9.40045 21.6805 8.04852C21.6612 7.06352 21.6648 6.07853 21.6685 5.09353C21.67 4.69956 21.6715 4.30558 21.6715 3.91161Z" fill="white"/>
<path fill-rule="evenodd" clip-rule="evenodd" d="M34.0011 20.8919C33.2079 20.5314 32.3517 20.306 31.4775 19.9996L29.5217 19.7202C28.5483 19.7923 27.6019 19.8103 26.6736 19.9545C24.3122 20.315 22.2122 21.2974 20.3376 22.7846C20.1393 22.9468 19.8328 23.055 19.5805 23.055L18.2105 25.0017C18.0843 25.2181 17.9942 25.3532 17.8951 25.4884C17.4985 26.1824 17.0749 26.8764 16.7054 27.5974L15.8852 29.8957C15.2813 32.5996 15.4616 35.2223 16.453 37.8361L17.6878 40.1704C20.0221 43.6584 23.2577 45.6683 27.4397 46.1459C27.5298 46.164 27.611 46.2 27.6921 46.2271H29.6749C29.747 46.2 29.8191 46.173 29.8912 46.164C32.4869 45.9387 34.8483 45.0644 36.8672 43.4241C40.932 40.1344 42.6534 35.8352 41.7702 30.6979C40.977 26.0923 38.2642 22.8296 34.0011 20.8919ZM40.0667 33.0052C40.0848 39.215 35.0376 44.2803 28.8006 44.3163C22.6178 44.3524 17.5436 39.2962 17.4895 33.0412C17.4354 26.8584 22.5007 21.7571 28.7376 21.712C34.9474 21.676 40.0487 26.7502 40.0667 33.0052Z" fill="#26C7BC"/>
<path d="M12.6856 18.2691C14.2629 18.2691 15.8402 18.2601 17.4174 18.2691C18.2556 18.2782 18.7423 18.9812 18.3908 19.6481C18.1655 20.0717 17.7779 20.1799 17.3273 20.1799C15.2093 20.1709 13.0912 20.1799 10.9822 20.1799C9.94573 20.1799 8.90925 20.1889 7.87277 20.1709C7.34101 20.1618 6.97149 19.8644 6.89037 19.4228C6.80024 18.9631 7.00754 18.5215 7.44016 18.3593C7.64745 18.2872 7.88179 18.2691 8.0981 18.2691C9.62127 18.2601 11.1535 18.2691 12.6856 18.2691Z" fill="white"/>
<path d="M29.756 29.1566C29.756 29.3189 29.756 29.4721 29.756 29.6343C29.756 32.8068 29.756 35.9704 29.756 39.1429C29.756 39.9991 29.4315 40.4588 28.8097 40.4678C28.1697 40.4858 27.8182 40.0262 27.8182 39.1429C27.8182 35.9884 27.8182 32.8339 27.8182 29.6794C27.8182 29.5081 27.8182 29.3369 27.8182 29.1656C27.7732 29.1476 27.7281 29.1206 27.683 29.1026C27.5839 29.2287 27.5028 29.3639 27.3946 29.4811C26.277 30.6798 25.1684 31.8785 24.0328 33.0682C23.8345 33.2755 23.5642 33.4468 23.3028 33.5459C22.9242 33.6721 22.5998 33.5099 22.3654 33.1854C22.1311 32.8609 22.1131 32.5094 22.3114 32.1759C22.4195 31.9957 22.5637 31.8425 22.6989 31.6893C24.4204 29.8416 26.1328 27.994 27.8543 26.1463C28.4942 25.4614 29.0079 25.4614 29.6388 26.1373C31.4144 28.03 33.1899 29.9317 34.9564 31.8335C35.2629 32.1579 35.4612 32.5094 35.2809 32.9691C35.0556 33.5459 34.3886 33.7622 33.8749 33.4107C33.7307 33.3116 33.5955 33.1764 33.4783 33.0502C32.3697 31.8605 31.2702 30.6708 30.1706 29.4811C30.0624 29.3639 29.9813 29.2287 29.8822 29.0935C29.8461 29.1026 29.8011 29.1296 29.756 29.1566Z" fill="#26C7BC"/>
</g>
<defs>
<clipPath id="clip0_106_50">
<rect width="42" height="46.2361" fill="white"/>
</clipPath>
</defs>
</svg>
