<svg width="50" height="41" viewBox="0 0 50 41" fill="none" xmlns="http://www.w3.org/2000/svg">
<path d="M0 2.03443C0.678143 0.404278 1.29108 0 3.07773 0C17.7882 0 32.4857 0 47.1961 0C48.6828 0 49.687 0.743351 49.9478 2.04747C49.987 2.26917 50 2.50391 50 2.72561C50 14.5149 50 26.3172 50 38.1064C50 39.3453 49.3349 40.0104 48.109 40.0104C42.71 40.0104 37.3109 40.0104 31.9118 40.0104C30.686 40.0104 30.0078 39.3323 30.0078 38.1064C30.0078 37.1022 30.0078 36.0981 30.0078 35.0026C29.7731 35.0026 29.5775 35.0026 29.3688 35.0026C20.6312 35.0026 11.8936 34.9896 3.16901 35.0157C1.61711 35.0157 0.521648 34.507 0.026082 32.9812C-3.98375e-07 22.6787 0 12.3631 0 2.03443ZM1.66928 21.6484C12.3761 21.6484 23.0177 21.6484 33.7376 21.6484C32.6552 19.927 32.264 18.1012 32.6291 16.145C32.9943 14.1628 34.0115 12.5848 35.6286 11.4111C38.3933 9.41575 42.2405 9.55921 44.8096 11.7632C46.1268 12.8847 47.0005 14.2932 47.3265 16.0016C47.77 18.2577 47.2613 20.3182 45.9311 22.1049C46.7527 22.6787 47.5352 23.2264 48.3307 23.7872C48.3307 23.6307 48.3307 23.4742 48.3307 23.3177C48.3307 16.5363 48.3307 9.74179 48.3307 2.96036C48.3307 1.91706 48.109 1.69536 47.0788 1.69536C32.3552 1.69536 17.6317 1.69536 2.90819 1.69536C1.90402 1.69536 1.66928 1.9301 1.66928 2.93427C1.66928 8.98539 1.66928 15.0365 1.66928 21.0876C1.66928 21.2441 1.66928 21.4137 1.66928 21.6484ZM1.7084 29.9948C1.68232 30.1122 1.66928 30.1513 1.66928 30.1774C1.66928 30.8294 1.66928 31.4815 1.66928 32.1335C1.66928 33.0986 1.90402 33.3333 2.88211 33.3333C11.7371 33.3333 20.5921 33.3333 29.434 33.3333C29.6035 33.3333 29.7731 33.3333 29.9557 33.3333C29.9557 32.1857 29.9557 31.1163 29.9557 29.9948C29.7209 29.9948 29.5253 29.9948 29.3166 29.9948C23.5915 29.9948 17.8665 29.9948 12.1283 29.9948C11.9457 29.9948 11.7632 29.9948 11.5936 29.9817C11.1372 29.9426 10.8894 29.6688 10.8372 29.2254C10.7851 28.795 11.072 28.4429 11.5154 28.3516C11.711 28.3125 11.9066 28.3255 12.1022 28.3255C17.8404 28.3255 23.5915 28.3255 29.3297 28.3255C29.5383 28.3255 29.747 28.3255 29.8252 28.3255C30.0861 27.3605 30.2165 26.4476 30.5816 25.626C30.9468 24.8044 31.5467 24.0871 32.0162 23.3568C21.9484 23.3568 11.8284 23.3568 1.68232 23.3568C1.68232 25.0261 1.68232 26.6562 1.68232 28.3255C1.89098 28.3255 2.07355 28.3255 2.24309 28.3255C3.61241 28.3255 4.98174 28.3255 6.33803 28.3255C7.06834 28.3255 7.48565 28.6385 7.47261 29.1732C7.45957 29.6948 7.08138 29.9948 6.36411 29.9948C5.1904 29.9948 4.01669 29.9948 2.84298 29.9948C2.49087 29.9948 2.09963 29.9948 1.7084 29.9948ZM34.9896 38.3281C34.9896 38.1195 34.9896 37.9238 34.9896 37.7413C34.9896 35.0417 34.9896 32.3422 34.9896 29.6427C34.9896 29.4862 34.9765 29.3166 35.0026 29.1601C35.0548 28.6776 35.3938 28.3646 35.8372 28.3646C36.2806 28.3646 36.6067 28.6907 36.6588 29.1732C36.6719 29.3297 36.6719 29.4992 36.6719 29.6557C36.6719 32.3552 36.6719 35.0548 36.6719 37.7543C36.6719 37.9499 36.6719 38.1325 36.6719 38.3281C38.928 38.3281 41.1189 38.3281 43.349 38.3281C43.349 38.1195 43.349 37.9369 43.349 37.7673C43.349 35.0287 43.349 32.3031 43.349 29.5644C43.349 29.4079 43.3359 29.2384 43.362 29.0819C43.4272 28.6515 43.6881 28.4038 44.1054 28.3777C44.4966 28.3386 44.8096 28.5211 44.94 28.9124C45.0052 29.108 45.0183 29.3297 45.0183 29.5383C45.0183 32.29 45.0183 35.0417 45.0183 37.7934C45.0183 37.976 45.0183 38.1586 45.0183 38.3412C46.1659 38.3412 47.2353 38.3412 48.3046 38.3412C48.3177 38.2629 48.3438 38.2238 48.3438 38.1716C48.3438 34.807 48.3829 31.4293 48.3307 28.0647C48.2916 26.0303 46.8571 24.2436 44.9139 23.6437C44.7053 23.5785 44.3923 23.6176 44.2097 23.735C41.6275 25.4434 38.3933 25.4564 35.8503 23.722C35.5895 23.5394 35.3678 23.5263 35.0809 23.6176C33.0334 24.2958 31.6771 26.1868 31.6771 28.469C31.6641 31.5989 31.6771 34.7157 31.6771 37.8456C31.6771 38.0021 31.6901 38.1586 31.7032 38.3281C32.7856 38.3281 33.855 38.3281 34.9896 38.3281ZM45.8138 17.5013C45.8138 14.2671 43.2055 11.6719 39.9844 11.6849C36.7762 11.698 34.181 14.2801 34.168 17.4883C34.1549 20.7225 36.7632 23.3307 39.9844 23.3438C43.2055 23.3438 45.8138 20.7355 45.8138 17.5013Z" fill="white"/>
<path d="M17.7324 5.84277C21.9577 5.84277 26.1961 5.84277 30.4215 5.84277C31.0735 5.84277 31.3996 6.07752 31.4648 6.56004C31.517 7.02952 31.23 7.4338 30.7475 7.499C30.591 7.52509 30.4215 7.51205 30.265 7.51205C21.9186 7.51205 13.5722 7.51205 5.22587 7.51205C4.37819 7.51205 4 7.25122 4 6.67741C4 6.1036 4.3782 5.85581 5.23891 5.85581C9.39906 5.84277 13.5722 5.84277 17.7324 5.84277Z" fill="#26C7BC"/>
<path d="M11.0944 10.0156C13.1288 10.0156 15.1633 10.0156 17.1847 10.0156C17.9541 10.0156 18.4105 10.6807 18.0193 11.2285C17.8498 11.4632 17.4716 11.6327 17.1716 11.6588C16.3631 11.711 15.5415 11.6849 14.7329 11.6849C11.5639 11.6849 8.39489 11.6849 5.22588 11.6849C5.01722 11.6849 4.79552 11.6849 4.5999 11.6327C4.18258 11.5154 3.98696 11.2154 4.01304 10.7981C4.03913 10.3677 4.28691 10.1069 4.70423 10.0417C4.87376 10.0156 5.05634 10.0287 5.23892 10.0287C7.1951 10.0156 9.13824 10.0156 11.0944 10.0156Z" fill="#26C7BC"/>
<path d="M12.4934 17.5145C12.4934 17.7884 12.5065 18.0622 12.4934 18.3491C12.4673 18.8577 12.1152 19.1838 11.6457 19.1707C11.1893 19.1577 10.8502 18.8447 10.8372 18.3622C10.8111 17.7884 10.8111 17.2276 10.8372 16.6538C10.8502 16.1843 11.2154 15.8452 11.6457 15.8452C12.0761 15.8452 12.4413 16.1712 12.4804 16.6407C12.5065 16.9276 12.4934 17.2145 12.4934 17.5145Z" fill="#26C7BC"/>
<path d="M15.819 17.5275C15.819 17.8144 15.8321 18.1144 15.819 18.4013C15.7799 18.8577 15.4539 19.1446 15.0235 19.1577C14.5932 19.1707 14.215 18.8838 14.1889 18.4404C14.1498 17.8275 14.1498 17.2015 14.1889 16.5886C14.215 16.1582 14.5932 15.8452 15.0105 15.8452C15.4408 15.8452 15.793 16.1843 15.8321 16.6538C15.8321 16.9407 15.819 17.2276 15.819 17.5275Z" fill="#26C7BC"/>
<path d="M7.51178 17.5014C7.51178 17.2275 7.49874 16.9536 7.51178 16.6667C7.53786 16.1973 7.86389 15.8582 8.30729 15.8451C8.72461 15.8321 9.11585 16.132 9.15497 16.5624C9.19409 17.1884 9.19409 17.8274 9.15497 18.4664C9.12889 18.9098 8.73765 19.1837 8.29425 19.1576C7.86389 19.1315 7.5509 18.8316 7.51178 18.3751C7.51178 18.349 7.51178 18.3099 7.51178 18.2838C7.51178 18.023 7.51178 17.7622 7.51178 17.5014Z" fill="#26C7BC"/>
<path d="M20.8137 17.5141C20.8137 17.801 20.8268 18.101 20.8137 18.3879C20.7877 18.8313 20.4877 19.1182 20.0704 19.1443C19.627 19.1703 19.2488 18.9617 19.2097 18.5313C19.1445 17.8401 19.1575 17.1359 19.2097 16.4447C19.2488 16.0274 19.614 15.8318 20.0313 15.8318C20.4356 15.8318 20.7616 16.1578 20.8007 16.5751C20.8268 16.9012 20.8137 17.2011 20.8137 17.5141Z" fill="#26C7BC"/>
<path d="M4.18627 17.4884C4.18627 17.2015 4.17323 16.9016 4.18627 16.6147C4.21236 16.1582 4.49926 15.9104 4.92962 15.8452C5.32086 15.7931 5.75122 16.0539 5.79034 16.4712C5.84251 17.1624 5.85555 17.8666 5.7773 18.5578C5.73818 19.0012 5.35998 19.1968 4.90354 19.1447C4.47318 19.1055 4.2254 18.8447 4.18627 18.4144C4.16019 18.1144 4.18627 17.8014 4.18627 17.4884Z" fill="#26C7BC"/>
<path d="M29.1732 17.5145C29.1732 17.2015 29.1471 16.9016 29.1732 16.5886C29.2123 16.1712 29.5384 15.8583 29.9426 15.8452C30.3599 15.8452 30.7251 16.0408 30.7642 16.4582C30.8294 17.1493 30.8294 17.8536 30.7642 18.5447C30.7251 18.9881 30.3599 19.1838 29.9035 19.1577C29.4862 19.1316 29.2123 18.8317 29.1602 18.3883C29.1602 18.3622 29.1602 18.323 29.1602 18.297C29.1732 18.0361 29.1732 17.7753 29.1732 17.5145Z" fill="#26C7BC"/>
<path d="M24.1393 17.5405C24.1393 17.8535 24.1654 18.1665 24.1262 18.4664C24.0741 18.8968 23.8002 19.1315 23.3829 19.1576C22.9656 19.1967 22.5743 18.9359 22.5352 18.5186C22.4831 17.8404 22.4831 17.1623 22.5352 16.4841C22.5743 16.0538 22.9265 15.8582 23.3307 15.8451C23.735 15.8321 24.0741 16.1451 24.1132 16.5624C24.1654 16.8884 24.1393 17.2144 24.1393 17.5405Z" fill="#26C7BC"/>
<path d="M25.8476 17.5014C25.8476 17.1884 25.8216 16.8885 25.8476 16.5755C25.8868 16.1451 26.2258 15.8582 26.6301 15.8452C27.0344 15.8321 27.4256 16.106 27.4517 16.5233C27.5039 17.1884 27.5039 17.8535 27.4517 18.5186C27.4256 18.9359 27.0344 19.1837 26.6171 19.1707C26.1997 19.1576 25.8998 18.8707 25.8476 18.4404C25.8346 18.3882 25.8346 18.3491 25.8346 18.2969C25.8346 18.0361 25.8346 17.7753 25.8346 17.5145C25.8346 17.5014 25.8476 17.5014 25.8476 17.5014Z" fill="#26C7BC"/>
</svg>
