<svg width="50" height="50" viewBox="0 0 50 50" fill="none" xmlns="http://www.w3.org/2000/svg">
<g clip-path="url(#clip0_106_96)">
<path fill-rule="evenodd" clip-rule="evenodd" d="M0 1.35423V27.0834C0.377604 28.0339 1.06771 28.3985 2.09635 28.3725C3.0895 28.336 4.08902 28.3442 5.09045 28.3524C5.52013 28.3559 5.95017 28.3594 6.38021 28.3594H6.91406L7.40885 26.3673C6.64062 23.2813 4.72656 21.4975 1.69271 20.9115V7.55215C4.90885 6.91413 6.82292 5.01308 7.47396 1.78392H42.474C43.112 5.00006 45.026 6.91413 48.2422 7.55215V20.9245C45.2083 21.4975 43.2943 23.2943 42.513 26.3803L42.9948 28.3594H45.1562C45.49 28.3594 45.8251 28.3609 46.1608 28.3623C46.8335 28.3652 47.5082 28.3681 48.1771 28.3594C49.2188 28.3464 49.9089 27.6693 49.9089 26.6146V1.86204C49.8958 0.729231 49.2057 0.0912094 47.9948 0.0912094H5.02604C4.73779 0.0912094 4.44838 0.0947054 4.15814 0.0982113C3.47821 0.106425 2.79379 0.114692 2.10937 0.0781898C1.08073 0.0261064 0.390625 0.403709 0 1.35423ZM14.1797 16.9141L15.9766 15.7162C15.3906 13.1381 16.276 9.10163 19.7656 6.69277C22.8776 4.54433 27.0312 4.53131 30.1562 6.69277C33.6328 9.0886 34.5312 13.112 33.9453 15.7162L35.8333 17.0053C35.5729 16.81 35.4948 16.6667 35.5599 16.3282C36.7448 10.2344 32.6562 4.46621 26.5234 3.52871C20.5339 2.63027 14.8177 7.01829 14.2448 13.0209C14.1783 13.7269 14.2338 14.4489 14.2894 15.1732C14.3209 15.5843 14.3526 15.9962 14.362 16.4063C14.362 16.5756 14.2969 16.823 14.1797 16.9141ZM1.69271 5.79433V1.75788H5.67708C5.63802 3.55475 3.77604 5.45579 1.69271 5.79433ZM44.1927 1.78392H48.2422V5.76829C46.4583 5.75527 44.5312 3.86725 44.1927 1.78392ZM1.69271 22.6563C3.63281 22.8646 5.48177 24.7136 5.70312 26.6798H1.69271V22.6563ZM44.2318 26.6537C44.2969 24.8438 46.1979 22.9298 48.2422 22.6433V26.6537H44.2318Z" fill="white"/>
<path fill-rule="evenodd" clip-rule="evenodd" d="M43.0339 28.8412C43.0078 28.698 43.0078 28.5548 42.9948 28.3594L42.513 26.3803C42.4349 26.224 42.3828 26.1199 42.3438 26.0157C41.1198 22.3308 38.9453 19.323 35.8333 17.0053L33.9453 15.7162C27.9688 12.6042 21.9922 12.6042 15.9766 15.7162L14.1797 16.9141C10.9635 19.31 8.73698 22.3959 7.5 26.211C7.48698 26.237 7.47396 26.2631 7.40885 26.3673L6.91406 28.3594C6.83594 29.1798 6.71875 29.961 6.69271 30.7292C6.51042 37.9949 9.50521 43.5808 15.6771 47.435C17.9818 48.8803 20.5339 49.6615 23.2422 49.9089C23.3333 49.9219 23.4245 49.961 23.5156 49.987H26.4453C27.513 49.7917 28.6068 49.7006 29.6354 49.3881C37.0182 47.2006 41.4844 42.3048 43.0078 34.7527C43.3984 32.7995 43.3594 30.8074 43.0339 28.8412ZM25.1172 15.0652C34.2448 15.1433 41.6797 22.6563 41.6016 31.7058C41.5234 41.0027 34.0104 48.4115 24.7786 48.3334C15.638 48.2423 8.24219 40.7032 8.32031 31.5495C8.39844 22.3699 15.9245 14.987 25.1172 15.0652Z" fill="#26C7BC"/>
<path d="M12.474 14.2319C12.474 16.4975 10.5859 18.3856 8.32031 18.3856C6.02864 18.3725 4.17969 16.5236 4.17969 14.2319C4.17969 11.9403 6.02865 10.0522 8.30729 10.0653C10.612 10.0653 12.474 11.9272 12.474 14.2319ZM5.83333 14.2189C5.83333 15.6121 6.95312 16.7319 8.33333 16.7189C9.67448 16.7189 10.8073 15.5731 10.8073 14.2189C10.8073 12.8257 9.67448 11.7189 8.29427 11.7319C6.92708 11.7449 5.83333 12.8387 5.83333 14.2189Z" fill="white"/>
<path d="M45.7422 14.271C45.7161 16.5627 43.8412 18.3986 41.5625 18.3856C39.2708 18.3726 37.4089 16.4585 37.4349 14.1538C37.4609 11.8882 39.388 10.0132 41.6537 10.0653C43.9583 10.1043 45.7682 11.9793 45.7422 14.271ZM44.0755 14.2189C44.0625 12.8257 42.9427 11.7189 41.5625 11.745C40.1953 11.771 39.1016 12.8778 39.1016 14.245C39.1146 15.6252 40.2604 16.745 41.6276 16.7319C42.9818 16.7059 44.0885 15.5731 44.0755 14.2189Z" fill="white"/>
<path d="M9.97394 31.6929C9.97394 23.4507 16.6666 16.732 24.8958 16.732C33.2161 16.7189 39.9479 23.4507 39.9219 31.745C39.8958 39.9872 33.164 46.6799 24.8958 46.6668C16.6927 46.6538 9.97394 39.909 9.97394 31.6929ZM11.6406 31.6799C11.6406 39.0106 17.6172 45.0002 24.9219 45.0002C32.3047 45.0002 38.2812 39.0106 38.2682 31.6408C38.2552 24.3361 32.3047 18.3986 24.987 18.3856C17.6172 18.3726 11.6536 24.3231 11.6406 31.6799Z" fill="#26C7BC"/>
<path d="M24.1276 28.3595C24.1276 27.2918 24.1146 26.224 24.1276 25.1433C24.1406 24.4532 24.6615 24.0365 25.2474 24.2579C25.7031 24.4272 25.7943 24.8048 25.7943 25.2475C25.7943 27.0444 25.8073 28.8543 25.7813 30.6511C25.7682 31.0808 25.9115 31.3152 26.2891 31.5235C27.3307 32.1095 28.3594 32.7345 29.375 33.3725C29.6094 33.5287 29.8698 33.8022 29.9089 34.0626C29.9479 34.31 29.7787 34.7267 29.5833 34.8308C29.3359 34.961 28.8932 34.974 28.6458 34.8308C27.5521 34.2319 26.4974 33.5678 25.4297 32.9298C25.2083 32.7996 24.987 32.6433 24.7656 32.5392C24.2969 32.3048 24.1276 31.9402 24.1406 31.4324C24.1276 30.4037 24.1276 29.3751 24.1276 28.3595Z" fill="#26C7BC"/>
<path d="M24.1276 42.0442C24.1276 41.9661 24.1276 41.888 24.1276 41.7968C24.1536 41.1849 24.4791 40.8073 24.987 40.8333C25.4687 40.8463 25.7812 41.2109 25.7943 41.7968C25.8073 42.0442 25.8073 42.2786 25.7812 42.526C25.7291 43.0078 25.3906 43.3203 24.9609 43.3333C24.5312 43.3333 24.1927 43.0078 24.1406 42.539C24.1146 42.3698 24.1276 42.2135 24.1276 42.0442Z" fill="#26C7BC"/>
<path d="M17.1485 26.5496C17.1485 27.2788 16.5755 27.6825 16.0287 27.4611C15.7031 27.3309 15.3906 27.1356 15.1042 26.9273C14.7526 26.6668 14.6745 26.1981 14.9089 25.8465C15.1172 25.508 15.5339 25.3517 15.9245 25.534C16.237 25.6773 16.5495 25.8335 16.8099 26.0418C16.9792 26.1981 17.0703 26.4455 17.1485 26.5496Z" fill="#26C7BC"/>
<path d="M35.1432 26.276C35.1432 26.8359 34.7005 27.0182 34.3099 27.2526C33.9583 27.474 33.5937 27.6563 33.1771 27.4089C32.6693 27.1094 32.6172 26.4193 33.099 26.0547C33.3854 25.8464 33.6979 25.6641 34.0234 25.5208C34.5703 25.2995 35.1432 25.7031 35.1432 26.276Z" fill="#26C7BC"/>
<path d="M25.7813 21.3153C25.7813 21.4585 25.7943 21.6017 25.7813 21.745C25.7292 22.2267 25.4036 22.5262 24.9479 22.5132C24.4922 22.5132 24.1797 22.2007 24.1406 21.7189C24.1146 21.4325 24.1146 21.133 24.1406 20.8465C24.1797 20.3517 24.5052 20.0522 24.9479 20.0522C25.4036 20.0522 25.7292 20.3387 25.7813 20.8335C25.7943 20.9897 25.7813 21.159 25.7813 21.3153Z" fill="#26C7BC"/>
<path d="M31.3672 22.3179C30.9896 22.8647 30.7162 23.3595 30.3255 23.7502C30.0781 24.0106 29.6745 23.9064 29.388 23.659C29.0886 23.4116 29.0365 23.06 29.1797 22.7215C29.3229 22.396 29.5052 22.0835 29.7136 21.797C29.9349 21.4845 30.2995 21.3804 30.625 21.5496C30.8985 21.7059 31.0808 22.0054 31.3672 22.3179Z" fill="#26C7BC"/>
<path d="M16.3281 35.6902C16.6276 35.9636 16.9141 36.1459 17.0703 36.4063C17.2656 36.7319 17.1354 37.0834 16.8359 37.3048C16.5364 37.5261 16.2239 37.7214 15.8854 37.8647C15.5338 38.0209 15.1823 37.9298 14.9349 37.6042C14.7005 37.3048 14.6484 36.9141 14.9088 36.6667C15.2995 36.3022 15.7812 36.0548 16.3281 35.6902Z" fill="#26C7BC"/>
<path d="M20.9505 23.0599C20.6771 23.3594 20.5208 23.6459 20.2734 23.7891C19.9609 23.9844 19.5833 23.8933 19.362 23.5938C19.1276 23.2683 18.8672 22.9167 18.776 22.5391C18.7109 22.2787 18.8542 21.849 19.0495 21.7058C19.2708 21.5495 19.7917 21.4974 19.9609 21.6537C20.3516 22.0183 20.599 22.5261 20.9505 23.0599Z" fill="#26C7BC"/>
<path d="M34.3099 38.086C33.7761 37.7084 33.2683 37.448 32.9037 37.0573C32.7604 36.9141 32.8125 36.3933 32.9688 36.198C33.125 35.9896 33.5547 35.8334 33.7891 35.8985C34.1927 36.0027 34.6094 36.2501 34.8959 36.5495C35.0651 36.7318 35.1302 37.1615 35.0391 37.4219C34.961 37.6693 34.6224 37.8256 34.3099 38.086Z" fill="#26C7BC"/>
<path d="M20.9635 40.3255C20.5859 40.8593 20.3255 41.3671 19.9349 41.7447C19.7917 41.888 19.2708 41.8229 19.0755 41.6666C18.8802 41.5104 18.7239 41.0807 18.789 40.8333C18.8932 40.4427 19.1276 40.039 19.414 39.7526C19.5963 39.5703 20.026 39.5052 20.2864 39.5833C20.5208 39.6744 20.6901 40.013 20.9635 40.3255Z" fill="#26C7BC"/>
<path d="M29.8437 39.5054C30.3515 39.5054 30.5989 39.7658 30.7812 40.1173C31.0026 40.534 31.3802 40.9246 31.0807 41.4585C30.7943 41.9663 30.1041 42.0444 29.7265 41.5757C29.5052 41.3022 29.3229 40.9767 29.1927 40.6512C28.9583 40.1043 29.3489 39.5184 29.8437 39.5054Z" fill="#26C7BC"/>
<path d="M14.5703 30.8724C14.7005 30.8724 14.8307 30.8724 14.961 30.8724C15.4557 30.8984 15.7682 31.1979 15.8073 31.6406C15.8333 32.0964 15.5208 32.474 15.0261 32.526C14.7526 32.5521 14.4792 32.5521 14.2057 32.526C13.6719 32.5 13.3334 32.1615 13.3464 31.6667C13.3594 31.1849 13.6979 30.8854 14.2448 30.8594C14.336 30.8594 14.4531 30.8594 14.5703 30.8724Z" fill="#26C7BC"/>
<path d="M35.4036 30.8725C35.5338 30.8725 35.664 30.8595 35.7942 30.8725C36.25 30.9115 36.5625 31.198 36.5885 31.6277C36.6146 32.0574 36.3541 32.435 35.9114 32.5001C35.5468 32.5522 35.1692 32.5522 34.8047 32.5001C34.362 32.448 34.1015 32.0574 34.1276 31.6277C34.1536 31.198 34.4661 30.8985 34.9219 30.8725C35.0781 30.8595 35.2343 30.8725 35.4036 30.8725Z" fill="#26C7BC"/>
</g>
<defs>
<clipPath id="clip0_106_96">
<rect width="50" height="50" fill="white"/>
</clipPath>
</defs>
</svg>
