<svg width="50" height="50" viewBox="0 0 50 50" fill="none" xmlns="http://www.w3.org/2000/svg">
<g clip-path="url(#clip0_106_125)">
<path d="M20.3841 36.6797C20.2929 36.6797 20.1888 36.6667 20.0586 36.6536L20.0325 38.3464H20.6575H41.2174C42.194 38.3464 42.3502 38.2031 42.4674 37.2135C42.6627 35.4948 43.9257 34.3099 45.6705 34.1927C46.3216 34.1536 46.6211 33.8542 46.6211 33.2031V20.1953C46.6211 19.5443 46.3216 19.2578 45.6315 19.2057C43.8997 19.0885 42.6497 17.8646 42.4674 16.1328C42.3763 15.2214 42.194 15.0651 41.2695 15.0651H20.7096H20.0455V16.7578H40.8658C40.9179 16.9401 40.957 17.1224 41.0221 17.3047C41.608 19.0755 42.7929 20.2214 44.5898 20.7161C44.9153 20.8073 44.9935 20.9245 44.9935 21.237C44.9804 24.8698 44.9804 28.5156 44.9935 32.1484C44.9935 32.5 44.8763 32.6042 44.5507 32.6953C42.7018 33.2292 41.5039 34.4141 40.983 36.276C40.8919 36.5625 40.7877 36.6927 40.4622 36.6927C33.7715 36.6797 27.0807 36.6797 20.39 36.6797H20.3841Z" fill="#26C7BC"/>
<path d="M25.6054 18.6849C23.7304 18.1641 21.8815 18.3203 20.0455 19.0625L20.02 21.3635C20.0274 21.0376 20.1246 20.8405 20.4492 20.7031C22.9882 19.5703 25.4101 19.7786 27.5716 21.5365C29.733 23.2943 30.5013 25.651 29.7981 28.3464C29.095 31.0417 27.2721 32.6693 24.5377 33.2161C23.0924 33.5156 21.6992 33.2682 20.3711 32.6302C20.2221 32.5593 20.1349 32.6545 20.0865 32.7075C20.051 32.7463 20.0363 32.7624 20.0332 32.6742L20.0586 34.401C24.2382 35.7422 27.7799 34.8958 30.345 31.1979C32.2721 28.4245 32.1419 24.6745 30.1757 21.901C29.0299 20.2995 27.5065 19.2188 25.6054 18.6849Z" fill="#26C7BC"/>
<path fill-rule="evenodd" clip-rule="evenodd" d="M0.0455322 3.58073V46.4714C0.110636 46.6667 0.17574 46.862 0.253865 47.0443C0.761678 48.5417 1.7773 49.4661 3.30074 49.8698C3.41793 49.8958 3.54814 49.9349 3.66532 49.974H28.1315C28.3398 49.9219 28.5351 49.8568 28.7304 49.7917C30.4101 49.2839 31.608 47.7604 31.6471 46.0026C31.6666 45.0651 31.6642 44.1277 31.6617 43.1902C31.6609 42.8777 31.6601 42.5651 31.6601 42.2526V41.6797L29.9804 41.7057V43.099V45.5859C29.9804 47.3047 28.9648 48.3203 27.2591 48.3203H8.19658H4.39449C2.75387 48.3203 1.69918 47.2786 1.69918 45.651V4.42708C1.69918 2.78646 2.74084 1.74479 4.38147 1.74479H27.3372C28.9257 1.74479 29.9804 2.78646 29.9804 4.36198V11.276V11.7057L31.6471 11.7187V11.1458V4.46614C31.6471 1.82291 29.8893 0.078125 27.2461 0.078125H4.48564C2.20699 0.078125 0.696574 1.25 0.123657 3.46354C0.114977 3.48958 0.0947222 3.51562 0.0744678 3.54167C0.0643404 3.55469 0.0542129 3.56771 0.0455322 3.58073ZM20.0226 41.986C20.0211 41.8983 20.0195 41.806 20.0195 41.7057L20.0325 40.013V38.3464L20.0586 36.6536V34.401L20.0332 32.6742C20.0329 32.6676 20.0328 32.6604 20.0327 32.6526C20.0326 32.6456 20.0325 32.6382 20.0325 32.6302C20.0491 31.4955 20.0393 30.1184 20.03 28.8073C20.0247 28.0573 20.0195 27.3288 20.0195 26.6797C20.0195 26.1002 20.0209 25.5193 20.0224 24.9369L20.0224 24.9349C20.0238 24.3442 20.0253 23.7518 20.0253 23.1581C20.0253 22.6257 20.024 22.092 20.0205 21.5572C20.0202 21.5069 20.0199 21.4566 20.0195 21.4062C20.0195 21.3918 20.0196 21.3775 20.02 21.3635L20.0455 19.0625V16.7578V15.0651C20.0455 14.4792 20.0455 13.9583 20.0195 13.3984V11.6927C20.0195 11.6054 20.021 11.5181 20.0224 11.4313C20.0253 11.2592 20.0281 11.0889 20.0195 10.9245C19.9804 10.4036 19.6158 10.0521 19.1471 10.0781C18.6914 10.1042 18.3919 10.4427 18.3658 10.9635V11.3542V42.0573V42.4479C18.3919 42.9818 18.7174 43.3464 19.1862 43.3464C19.6419 43.3464 19.9935 42.9818 20.0195 42.4479C20.028 42.2956 20.0254 42.1487 20.0226 41.986ZM26.6341 5.10417V11.6927L28.3268 11.6797L28.3242 11.6432C28.3121 11.4747 28.3007 11.3168 28.3007 11.1589V5.26042C28.3007 4.02344 27.6497 3.38542 26.3997 3.38542C26.161 3.38542 25.9223 3.38397 25.6836 3.38252C25.2061 3.37963 24.7287 3.37674 24.2513 3.38542C23.1966 3.39844 22.4544 4.0625 22.4934 5.11719C22.5426 6.72685 22.1047 6.72474 20.9938 6.7194C20.9275 6.71908 20.8589 6.71875 20.7877 6.71875C18.47 6.71007 16.1523 6.71296 13.8346 6.71586C12.6757 6.7173 11.5169 6.71875 10.358 6.71875C9.40751 6.71875 9.18616 6.48438 9.17314 5.54688C9.17094 5.48758 9.16949 5.42755 9.16802 5.36715C9.1608 5.06942 9.15337 4.76281 9.05595 4.49219C8.82157 3.8151 8.30074 3.42448 7.58459 3.39844C6.7122 3.35938 5.82678 3.3724 4.95439 3.39844C4.06897 3.42448 3.41793 4.10156 3.35282 4.98698V5.46875V44.5573C3.35282 46.0677 3.93876 46.6536 5.44918 46.6536H26.3086C27.7018 46.6536 28.3138 46.0417 28.3138 44.6745V41.7057L26.6341 41.7318V45H5.07158V5.13021H7.54553V5.83333C7.55855 7.36979 8.57418 8.39844 10.1106 8.41146C12.0903 8.42014 14.0757 8.41724 16.0592 8.41435L16.0607 8.41435C17.0512 8.4129 18.0413 8.41146 19.0299 8.41146H21.5169C23.1575 8.39844 24.1471 7.39583 24.1731 5.75521V5.10417H26.6341Z" fill="white"/>
<path d="M32.3372 11.7187H31.6471L29.9804 11.7057C29.4075 11.7057 28.9127 11.7057 28.3268 11.6797L26.6341 11.6927H20.0195V13.3984H20.6185H46.9856C48.0664 13.3984 48.2747 13.6068 48.2747 14.6745V38.7891C48.2747 39.7786 48.0403 40.013 47.0377 40.013H20.5794H20.0325L20.0195 41.7057C22.2461 41.7057 24.4205 41.7057 26.6341 41.7318L28.3138 41.7057H29.9804L31.6601 41.6797H32.2851H47.2461C48.6783 41.6797 49.681 40.8984 49.9284 39.6094C49.9674 39.388 49.9674 39.1536 49.9674 38.9323V14.4661C49.9674 12.7214 48.9648 11.7187 47.207 11.7187H32.3372Z" fill="#26C7BC"/>
<path d="M15.1107 10.8593C14.9414 11.1457 14.8633 11.3931 14.7071 11.5494C12.5326 13.7369 10.3581 15.9244 8.17059 18.0989C7.77997 18.4895 7.31122 18.4895 6.95966 18.1509C6.60809 17.8124 6.59507 17.3306 6.9857 16.94C9.1732 14.7395 11.3737 12.552 13.5612 10.3645C13.8477 10.078 14.2123 9.98687 14.5378 10.1822C14.7591 10.3124 14.9024 10.6119 15.1107 10.8593Z" fill="white"/>
<path d="M7.44134 13.4634C7.23301 13.2812 6.90749 13.1379 6.81634 12.8905C6.7252 12.6562 6.75124 12.2265 6.90749 12.0442C7.45436 11.4062 8.06634 10.8202 8.67832 10.2473C8.99082 9.94782 9.48561 10.0259 9.78509 10.3124C10.0716 10.6119 10.1106 11.0937 9.81113 11.4192C9.25124 12.0181 8.65228 12.6041 8.05332 13.164C7.92311 13.3072 7.71478 13.3463 7.44134 13.4634Z" fill="white"/>
<path d="M42.4674 26.7188C42.4544 29.0235 40.5533 30.8985 38.2617 30.8725C35.983 30.8464 34.1471 28.9584 34.1601 26.6667C34.1731 24.3881 36.0611 22.5261 38.3398 22.5391C40.6315 22.5522 42.4804 24.4272 42.4674 26.7188ZM35.8268 26.6667C35.8137 28.0469 36.9205 29.1798 38.3137 29.1928C39.6549 29.2058 40.8007 28.073 40.8138 26.7318C40.8268 25.3256 39.733 24.2188 38.3398 24.2188C36.9466 24.2058 35.8398 25.2995 35.8268 26.6667Z" fill="#26C7BC"/>
<path d="M17.9102 5.06518C17.5065 5.06518 17.1029 5.07821 16.6862 5.06518C16.1914 5.05216 15.8398 4.68758 15.8398 4.24487C15.8398 3.81519 16.1784 3.43758 16.6471 3.42456C17.4935 3.39852 18.3398 3.39852 19.1862 3.42456C19.681 3.43758 20.0195 3.82821 20.0065 4.28393C19.9935 4.73966 19.6419 5.05216 19.1341 5.07821C19.1081 5.07821 19.069 5.07821 19.043 5.07821C18.6654 5.06519 18.2878 5.06518 17.9102 5.06518Z" fill="white"/>
<path d="M12.9491 5.06518C12.8059 5.06518 12.6627 5.07821 12.5064 5.06518C12.0377 5.02612 11.7121 4.7006 11.6991 4.2579C11.6861 3.81519 11.9986 3.46362 12.4674 3.41154C12.7408 3.3855 13.0142 3.39852 13.2877 3.39852C13.8215 3.42456 14.1731 3.7631 14.1731 4.24487C14.1731 4.72664 13.8215 5.03914 13.2746 5.06518C13.1705 5.06518 13.0533 5.06518 12.9491 5.06518Z" fill="white"/>
</g>
<defs>
<clipPath id="clip0_106_125">
<rect width="50" height="50" fill="white"/>
</clipPath>
</defs>
</svg>
